<?xml version="1.0" encoding="UTF-8"?>
<svg version="1.1" xmlns="http://www.w3.org/2000/svg" width="4500" height="3694">
<path d="M0 0 C1485 0 2970 0 4500 0 C4500 1219.02 4500 2438.04 4500 3694 C3015 3694 1530 3694 0 3694 C0 2474.98 0 1255.96 0 0 Z " fill="#F4F4F4" transform="translate(0,0)"/>
<path d="M0 0 C1.40272008 1.26528405 2.81152785 2.52417802 4.24209595 3.75788879 C9.03107888 7.88823057 13.58315053 12.19005321 18.046875 16.66796875 C18.72922714 17.34936417 19.41157928 18.03075958 20.11460876 18.73280334 C21.54516312 20.16268241 22.97447642 21.59380411 24.40258789 23.02612305 C26.56870949 25.19760211 28.74012049 27.36368825 30.91210938 29.52929688 C32.31151862 30.92936702 33.71061759 32.32974738 35.109375 33.73046875 C35.7481105 34.36718002 36.38684601 35.0038913 37.04493713 35.65989685 C41.3973791 40.03467202 45.48917683 44.58729629 49.51171875 49.265625 C50.4610857 50.3486688 51.41140106 51.43088316 52.36328125 52.51171875 C68.4201183 70.91966392 82.94576974 90.82783236 96.24169922 111.31103516 C97.10625733 112.64161037 97.97525335 113.96931015 98.84814453 115.29443359 C134.31838074 169.23068218 160.73168997 231.10348919 169.51171875 295.265625 C169.77770874 297.09287109 169.77770874 297.09287109 170.04907227 298.95703125 C171.69786568 310.92981785 171.86909515 322.81912045 171.82421875 334.890625 C171.82239594 335.90720184 171.82057312 336.92377869 171.81869507 337.97116089 C171.75638875 358.59292922 169.79588445 377.67751054 164.6953125 397.69921875 C164.50517578 398.47048096 164.31503906 399.24174316 164.11914062 400.03637695 C163.51171875 402.265625 163.51171875 402.265625 162.71679688 404.37573242 C161.74252447 407.15529402 161.0889419 409.36703137 162.3815918 412.11450195 C163.85549807 414.10773672 165.44261204 415.89341117 167.13671875 417.703125 C168.36129753 419.10804633 169.5812326 420.51702664 170.796875 421.9296875 C171.42094238 422.64672852 172.04500977 423.36376953 172.68798828 424.10253906 C212.63852871 471.48698193 235.33985664 534.7363746 249.51171875 594.265625 C249.86508301 595.7491748 249.86508301 595.7491748 250.22558594 597.26269531 C255.64374854 620.3497876 258.88891602 643.71637488 261.51171875 667.265625 C261.66253906 668.58481934 261.66253906 668.58481934 261.81640625 669.93066406 C262.09565613 672.37504389 262.36783738 674.82008491 262.63671875 677.265625 C262.71229004 677.93319824 262.78786133 678.60077148 262.86572266 679.28857422 C264.52084917 694.89458655 264.71735513 710.52507289 264.69921875 726.203125 C264.69828217 727.25464752 264.69734558 728.30617004 264.69638062 729.38955688 C264.61999169 769.20323659 261.30794852 808.35431416 252.51171875 847.265625 C252.25664551 848.41434082 252.00157227 849.56305664 251.73876953 850.74658203 C244.71268631 882.12247428 234.64748702 912.93812183 219.49316406 941.40429688 C218.45022162 943.38225539 217.44438624 945.37650406 216.44140625 947.375 C208.47275662 963.08116689 198.63033521 977.61851528 187.51171875 991.265625 C187.06924805 991.81105957 186.62677734 992.35649414 186.17089844 992.91845703 C174.14520161 1007.62641817 160.9055252 1021.09242812 145.51171875 1032.265625 C144.91488281 1032.70680664 144.31804687 1033.14798828 143.703125 1033.60253906 C135.39363857 1039.71168051 126.73747226 1044.98694643 117.69921875 1049.953125 C116.73757813 1050.48284912 115.7759375 1051.01257324 114.78515625 1051.55834961 C113.88410156 1052.04311768 112.98304687 1052.52788574 112.0546875 1053.02734375 C111.2505542 1053.46006592 110.4464209 1053.89278809 109.61791992 1054.33862305 C107.51171875 1055.265625 107.51171875 1055.265625 104.51171875 1055.265625 C104.18171875 1056.255625 103.85171875 1057.245625 103.51171875 1058.265625 C101.44921875 1059.453125 101.44921875 1059.453125 99.51171875 1060.265625 C99.51171875 1061.255625 99.51171875 1062.245625 99.51171875 1063.265625 C98.85171875 1063.265625 98.19171875 1063.265625 97.51171875 1063.265625 C97.51171875 1063.925625 97.51171875 1064.585625 97.51171875 1065.265625 C94.51171875 1066.265625 94.51171875 1066.265625 91.38671875 1065.703125 C86.87658755 1065.19391664 82.73588539 1065.48893688 78.51171875 1067.265625 C77.46721964 1070.39912232 77.5774823 1071.25530756 78.51171875 1074.265625 C72.45703125 1073.875 72.45703125 1073.875 70.51171875 1073.265625 C69.25390625 1071.21875 69.25390625 1071.21875 68.51171875 1069.265625 C67.7640625 1069.47058594 67.01640625 1069.67554687 66.24609375 1069.88671875 C65.26125 1070.15613281 64.27640625 1070.42554687 63.26171875 1070.703125 C62.2871875 1070.96996094 61.31265625 1071.23679687 60.30859375 1071.51171875 C59.385625 1071.76050781 58.46265625 1072.00929688 57.51171875 1072.265625 C56.79628906 1072.46285156 56.08085937 1072.66007812 55.34375 1072.86328125 C52.73709814 1073.43574424 50.17372473 1073.265625 47.51171875 1073.265625 C46.52171875 1073.595625 45.53171875 1073.925625 44.51171875 1074.265625 C40.99472645 1074.49893899 37.47882545 1074.64699437 33.95703125 1074.7890625 C30.34287175 1075.28898025 28.53339917 1076.32495461 25.51171875 1078.265625 C21.69921875 1078.453125 21.69921875 1078.453125 18.51171875 1078.265625 C18.18171875 1079.255625 17.85171875 1080.245625 17.51171875 1081.265625 C16.52171875 1081.265625 15.53171875 1081.265625 14.51171875 1081.265625 C14.51171875 1080.605625 14.51171875 1079.945625 14.51171875 1079.265625 C13.52171875 1079.595625 12.53171875 1079.925625 11.51171875 1080.265625 C9.84505208 1079.59895833 8.17838542 1078.93229167 6.51171875 1078.265625 C3.84769036 1077.81006624 1.20343711 1077.53935907 -1.48828125 1077.265625 C-1.48828125 1076.605625 -1.48828125 1075.945625 -1.48828125 1075.265625 C-4.12828125 1075.595625 -6.76828125 1075.925625 -9.48828125 1076.265625 C-9.48828125 1075.605625 -9.48828125 1074.945625 -9.48828125 1074.265625 C-10.56207031 1074.27722656 -11.63585938 1074.28882812 -12.7421875 1074.30078125 C-14.17838366 1074.31016815 -15.61458173 1074.31926738 -17.05078125 1074.328125 C-17.75525391 1074.33650391 -18.45972656 1074.34488281 -19.18554688 1074.35351562 C-22.67501517 1074.36959612 -26.00306967 1074.248512 -29.453125 1073.69921875 C-30.45472656 1073.55613281 -31.45632813 1073.41304687 -32.48828125 1073.265625 C-32.81828125 1073.595625 -33.14828125 1073.925625 -33.48828125 1074.265625 C-40.45970982 1073.57991071 -40.45970982 1073.57991071 -43.73828125 1072.578125 C-46.16909807 1072.14405057 -47.42906332 1073.01538554 -49.48828125 1074.265625 C-49.81828125 1073.605625 -50.14828125 1072.945625 -50.48828125 1072.265625 C-50.15828125 1071.275625 -49.82828125 1070.285625 -49.48828125 1069.265625 C-50.05675781 1069.54277344 -50.62523438 1069.81992188 -51.2109375 1070.10546875 C-56.04881978 1072.37499283 -60.16026537 1073.81217684 -65.48828125 1074.265625 C-64.48828125 1072.265625 -63.48828125 1070.265625 -62.48828125 1068.265625 C-63.47828125 1068.265625 -64.46828125 1068.265625 -65.48828125 1068.265625 C-65.48828125 1067.605625 -65.48828125 1066.945625 -65.48828125 1066.265625 C-66.74640625 1066.3275 -68.00453125 1066.389375 -69.30078125 1066.453125 C-74.99393229 1066.48032158 -80.09352765 1064.95967847 -85.48828125 1063.265625 C-84.82828125 1063.925625 -84.16828125 1064.585625 -83.48828125 1065.265625 C-86.12828125 1065.595625 -88.76828125 1065.925625 -91.48828125 1066.265625 C-91.61203125 1065.646875 -91.73578125 1065.028125 -91.86328125 1064.390625 C-92.83139267 1061.09904616 -94.65686658 1060.15323478 -97.48828125 1058.265625 C-99.7017069 1057.37145967 -101.93455944 1056.52514052 -104.17578125 1055.703125 C-105.63412807 1055.1627968 -107.09246051 1054.62242981 -108.55078125 1054.08203125 C-111.07352939 1053.1528941 -113.59699811 1052.22576349 -116.12109375 1051.30029297 C-144.95093848 1040.70984253 -172.85051522 1028.61835515 -200.48828125 1015.265625 C-202.10766602 1014.48590332 -202.10766602 1014.48590332 -203.75976562 1013.69042969 C-217.00746136 1007.28490245 -229.83338592 1000.25508888 -242.58837891 992.92285156 C-245.48669675 991.2665305 -248.39690641 989.63350643 -251.3125 988.0078125 C-263.43137012 981.24319993 -275.32006476 974.19223312 -287.06054688 966.79052734 C-289.27346831 965.40055276 -291.49551901 964.0271903 -293.72265625 962.66015625 C-305.05219568 955.66280815 -316.07942622 948.21646802 -327.11328125 940.765625 C-327.89388916 940.23900269 -328.67449707 939.71238037 -329.47875977 939.1697998 C-343.5993365 929.6351841 -357.5636674 919.884702 -371.36328125 909.890625 C-372.09466309 909.36154541 -372.82604492 908.83246582 -373.57958984 908.28735352 C-392.08169082 894.87932217 -410.40734241 881.23623861 -428.48828125 867.265625 C-430.65407032 865.59781651 -432.82121625 863.93177507 -434.98828125 862.265625 C-436.0729228 861.43099756 -437.15755823 860.59636215 -438.2421875 859.76171875 C-440.39431595 858.10608614 -442.5480779 856.45261273 -444.703125 854.80078125 C-456.0675895 846.08486595 -467.32062569 837.23235574 -478.48828125 828.265625 C-485.77424152 822.41884028 -493.06695039 816.58305425 -500.42578125 810.828125 C-508.88877571 804.20256993 -517.20330357 797.3958508 -525.52929688 790.59960938 C-532.47361347 784.93363294 -539.42607378 779.28435627 -546.48828125 773.765625 C-551.48871442 769.85805827 -556.44120928 765.89647744 -561.36328125 761.890625 C-562.03174072 761.34664062 -562.7002002 760.80265625 -563.38891602 760.2421875 C-566.75097396 757.50312168 -570.10796686 754.75799261 -573.4609375 752.0078125 C-581.00291856 745.83431359 -588.63987487 739.82167166 -596.40722656 733.93408203 C-601.57942015 729.99944376 -606.5779185 725.91266166 -611.54296875 721.71875 C-615.32291216 718.57046822 -619.18763278 715.5402611 -623.06494141 712.51342773 C-627.42153751 709.11084384 -631.74205008 705.66606205 -636.05078125 702.203125 C-642.79118997 696.79414433 -649.62076913 691.5117591 -656.48828125 686.265625 C-658.55157607 684.68332757 -660.61406206 683.09997492 -662.67578125 681.515625 C-663.20147705 681.11182617 -663.72717285 680.70802734 -664.26879883 680.29199219 C-667.4371598 677.8548636 -670.59523526 675.40503306 -673.74609375 672.9453125 C-682.93452544 665.77254262 -692.18179443 658.69312575 -701.52929688 651.72900391 C-703.49402104 650.26133733 -705.45293468 648.78624735 -707.41015625 647.30859375 C-715.06544467 641.5332356 -722.78287755 635.85572791 -730.5703125 630.25976562 C-735.23947162 626.90131756 -739.87928756 623.50681617 -744.49926758 620.08105469 C-753.46342586 613.43407994 -762.53965377 606.97056903 -771.703125 600.6015625 C-774.60528053 598.58411946 -777.49606549 596.55354414 -780.3671875 594.4921875 C-795.45744067 583.67102886 -811.00410181 573.51004904 -826.48828125 563.265625 C-827.19966248 562.79459351 -827.9110437 562.32356201 -828.64398193 561.83825684 C-845.43424124 550.72155658 -862.25397681 539.6870267 -879.48828125 529.265625 C-880.27428711 528.78931641 -881.06029297 528.31300781 -881.87011719 527.82226562 C-886.80019958 524.83885113 -891.74360597 521.8783634 -896.69482422 518.93017578 C-898.66109708 517.75852324 -900.62615699 516.58483393 -902.59033203 515.40966797 C-959.57583988 481.31686302 -1018.57953545 450.69035747 -1079.45233154 424.15435791 C-1081.36418593 423.3197951 -1083.27446532 422.48175793 -1085.18408203 421.64208984 C-1151.4424118 392.55192815 -1220.53351625 368.76465809 -1290.48828125 350.265625 C-1291.35807617 350.03311035 -1292.22787109 349.8005957 -1293.12402344 349.56103516 C-1319.15613099 342.60294713 -1345.31769127 336.25226518 -1371.75170898 331.01367188 C-1374.46544632 330.47039248 -1377.17464262 329.91422978 -1379.88305664 329.34570312 C-1393.61739558 326.48932495 -1407.42337578 324.30183225 -1421.30078125 322.265625 C-1422.47947784 322.09198425 -1423.65817444 321.91834351 -1424.87258911 321.73944092 C-1512.82188732 308.8463268 -1615.39886345 299.89106589 -1726.71875 350.140625 C-1741.33363954 361.35430611 -1756.26483127 375.57179621 -1759.3125 394.8125 C-1761.26891653 422.11537956 -1750.91717507 443.8473331 -1733.81640625 464.59765625 C-1726.20443937 473.32076595 -1718.44860894 481.9071436 -1709.48828125 489.265625 C-1708.53824219 490.09191406 -1707.58820313 490.91820312 -1706.609375 491.76953125 C-1688.70624251 507.32899093 -1668.12719972 522.37291056 -1643.48828125 523.265625 C-1642.39257812 523.32878906 -1641.296875 523.39195312 -1640.16796875 523.45703125 C-1613.55320887 524.33288853 -1587.59408239 512.03827007 -1563.65283203 501.72143555 C-1556.17018064 498.51285324 -1548.67041184 495.52072633 -1540.94921875 492.9296875 C-1540.23424225 492.68866302 -1539.51926575 492.44763855 -1538.78262329 492.1993103 C-1528.93243501 488.98183723 -1519.98498155 487.92551131 -1509.61328125 487.953125 C-1507.80923828 487.92895508 -1507.80923828 487.92895508 -1505.96875 487.90429688 C-1495.16294065 487.89843053 -1486.01583004 490.0101664 -1476.42578125 494.953125 C-1475.39855957 495.47749146 -1475.39855957 495.47749146 -1474.35058594 496.01245117 C-1468.45955859 499.1129553 -1463.42433461 502.79133147 -1458.48828125 507.265625 C-1457.5240625 508.13445313 -1456.55984375 509.00328125 -1455.56640625 509.8984375 C-1453.00240675 512.22640833 -1450.46254043 514.57944419 -1447.92578125 516.93701172 C-1445.7997267 518.90202341 -1443.64459464 520.83392759 -1441.48828125 522.765625 C-1437.75533249 526.11447613 -1434.053846 529.49530543 -1430.36328125 532.890625 C-1427.10441795 535.88746914 -1423.8332845 538.86477156 -1420.48828125 541.765625 C-1416.60855172 545.13020372 -1412.82970616 548.60151408 -1409.05078125 552.078125 C-1405.88048336 554.99352456 -1402.69433368 557.88945578 -1399.48828125 560.765625 C-1395.75533204 564.11447654 -1392.0538692 567.49533022 -1388.36328125 570.890625 C-1384.47159782 574.46896641 -1380.54147056 577.99394113 -1376.546875 581.45703125 C-1373.99871475 583.6957375 -1371.49417532 585.97972712 -1368.98828125 588.265625 C-1365.84744569 591.13034315 -1362.69727369 593.97748402 -1359.48828125 596.765625 C-1355.30960046 600.39628208 -1351.23011821 604.13281076 -1347.140625 607.86328125 C-1344.96367129 609.83504344 -1342.76989451 611.77927837 -1340.55078125 613.703125 C-1336.60160758 617.13331076 -1332.7580582 620.67566018 -1328.91040039 624.21850586 C-1326.13351755 626.77102953 -1323.3385611 629.29538246 -1320.48828125 631.765625 C-1316.607772 635.13087991 -1312.82805846 638.60278116 -1309.04858398 642.08032227 C-1305.90079416 644.97530136 -1302.73607173 647.8493119 -1299.55078125 650.703125 C-1294.03234681 655.65737444 -1288.59036364 660.69258353 -1283.1484375 665.73046875 C-1281.54500847 667.213169 -1279.93906499 668.69308336 -1278.33203125 670.171875 C-1254.69499772 691.9283567 -1254.69499772 691.9283567 -1246.32176208 700.46458435 C-1244.65735506 702.09954265 -1242.94972649 703.59808618 -1241.16430664 705.09790039 C-1234.51932777 710.88117818 -1228.39214925 717.21820471 -1222.171875 723.44921875 C-1220.78774844 724.8326704 -1219.40347357 726.21597368 -1218.01905823 727.59913635 C-1215.12867283 730.48805362 -1212.24008785 733.37875576 -1209.3527832 736.27075195 C-1205.6690408 739.96019108 -1201.98082637 743.64512176 -1198.29124355 747.32871914 C-1195.43511832 750.18121482 -1192.58139887 753.03610777 -1189.7283802 755.89171028 C-1188.37006893 757.25068421 -1187.01102672 758.60892799 -1185.65121269 759.96639824 C-1172.83141652 772.76893906 -1172.83141652 772.76893906 -1167.73451233 778.79920959 C-1166.09075689 780.73338403 -1164.31346235 782.50338118 -1162.48828125 784.265625 C-1159.33907244 787.37276422 -1156.40851158 790.59052804 -1153.52734375 793.9453125 C-1151.45290137 796.30588486 -1149.32376472 798.6047611 -1147.17895508 800.90112305 C-1142.2062343 806.22743195 -1137.4541574 811.64618346 -1132.890625 817.33203125 C-1130.03866917 820.81466349 -1127.07995123 824.19332215 -1124.11328125 827.578125 C-1118.4359249 834.08019901 -1113.03834796 840.7567337 -1107.77490234 847.59667969 C-1106.53673451 849.20277368 -1105.28810145 850.80078322 -1104.0390625 852.3984375 C-1092.79199664 866.8511888 -1082.13815021 881.69603344 -1072.48828125 897.265625 C-1071.71484375 898.51037598 -1071.71484375 898.51037598 -1070.92578125 899.78027344 C-1053.42705442 928.1420921 -1037.97763906 958.22281242 -1038.48828125 992.265625 C-1046.34362573 990.54368101 -1051.50139675 987.56211146 -1057.48828125 982.265625 C-1058.26816406 981.58242187 -1059.04804687 980.89921875 -1059.8515625 980.1953125 C-1062.42007964 977.90945514 -1064.95751052 975.59319516 -1067.48828125 973.265625 C-1069.01094378 971.86680101 -1070.53386837 970.46826291 -1072.05688477 969.06982422 C-1073.09548438 968.11610467 -1074.13373254 967.16200224 -1075.17163086 966.20751953 C-1077.87056242 963.73013882 -1080.59014248 961.28453112 -1083.36328125 958.890625 C-1087.79984059 955.04808197 -1092.06662684 951.02530853 -1096.35717773 947.02172852 C-1099.34118474 944.24238482 -1102.3334294 941.48741226 -1105.42578125 938.828125 C-1109.38338817 935.4175739 -1113.17811586 931.83869697 -1116.98828125 928.265625 C-1121.41909692 924.11106087 -1125.86422662 919.99765458 -1130.46875 916.03515625 C-1133.72335406 913.18344322 -1136.89124566 910.2367471 -1140.07373047 907.30517578 C-1142.78316557 904.81406469 -1145.51105922 902.35386618 -1148.30078125 899.953125 C-1152.98712372 895.89555804 -1157.47386499 891.6234065 -1161.99487305 887.3840332 C-1165.73964589 883.87877612 -1169.52254329 880.44047768 -1173.41015625 877.09375 C-1176.85496745 874.06335218 -1180.20356426 870.92868485 -1183.56860352 867.81030273 C-1187.66576476 864.01632787 -1191.80264608 860.26993011 -1195.9609375 856.54296875 C-1198.81910328 853.96752725 -1201.65538386 851.36876736 -1204.48828125 848.765625 C-1208.93890103 844.67641955 -1213.41906242 840.62193385 -1217.91796875 836.5859375 C-1220.83256545 833.95482741 -1223.72369164 831.29911966 -1226.61328125 828.640625 C-1229.82868883 825.68301395 -1233.05597958 822.7456461 -1236.36328125 819.890625 C-1240.7982842 816.04942998 -1245.06340293 812.02793455 -1249.3527832 808.02612305 C-1252.97034541 804.65714383 -1256.63229789 801.35868987 -1260.375 798.12890625 C-1263.82871414 795.08376458 -1267.19123846 791.94008963 -1270.56835938 788.81054688 C-1274.66558334 785.01647011 -1278.80256038 781.27000691 -1282.9609375 777.54296875 C-1285.81910328 774.96752725 -1288.65538386 772.36876736 -1291.48828125 769.765625 C-1295.13755296 766.41269383 -1298.79997723 763.07564143 -1302.48828125 759.765625 C-1306.69512452 755.99025283 -1310.86502978 752.17582052 -1315.02734375 748.3515625 C-1318.16495211 745.47139893 -1321.31849066 742.61030886 -1324.48828125 739.765625 C-1328.17658615 736.45560778 -1331.8389389 733.11848 -1335.48828125 729.765625 C-1341.57594404 724.17380748 -1347.71640591 718.64241028 -1353.875 713.12890625 C-1359.18201404 708.36883086 -1364.43489392 703.55438188 -1369.66674805 698.7121582 C-1373.75296204 694.9341106 -1377.87492961 691.19836867 -1382.01953125 687.484375 C-1384.72915584 685.04914277 -1387.42160296 682.59567224 -1390.11328125 680.140625 C-1393.12609761 677.39636051 -1396.1507797 674.67542071 -1399.23828125 672.015625 C-1403.94219553 667.93371591 -1408.45224807 663.64365757 -1412.99462891 659.38427734 C-1416.73947132 655.87892523 -1420.52245577 652.44055303 -1424.41015625 649.09375 C-1427.27342518 646.57493447 -1430.06611107 643.98240996 -1432.86328125 641.390625 C-1439.75848989 635.00345303 -1446.70066835 628.67523787 -1453.80078125 622.515625 C-1456.82771488 619.88377307 -1459.65171298 617.10219327 -1462.48828125 614.265625 C-1467.74461861 609.16388579 -1475.32268773 606.25426213 -1482.61328125 605.640625 C-1489.17239496 606.69854657 -1493.72690052 610.08707515 -1497.86328125 615.203125 C-1499.53769685 618.25206805 -1499.53769685 618.25206805 -1500.86328125 621.50708008 C-1502.44943351 625.2444942 -1504.25035094 628.85885778 -1506.11328125 632.46484375 C-1506.45670059 633.13349457 -1506.80011993 633.80214539 -1507.15394592 634.49105835 C-1508.26254687 636.64655953 -1509.37513089 638.79997015 -1510.48828125 640.953125 C-1511.0581929 642.05852127 -1511.0581929 642.05852127 -1511.63961792 643.18624878 C-1516.58365404 652.77216161 -1521.62608388 662.28949296 -1526.87915039 671.71044922 C-1529.85798057 677.0672027 -1532.6559084 682.48828423 -1535.3659668 687.98510742 C-1542.20277314 701.829081 -1549.42571854 715.47313623 -1556.9909668 728.93164062 C-1559.51439475 733.4442186 -1561.90040289 737.99851208 -1564.17578125 742.640625 C-1567.84993696 750.13336078 -1571.78284826 757.4808072 -1575.73828125 764.828125 C-1580.60142962 773.86467592 -1585.43225047 782.91541015 -1590.17578125 792.015625 C-1590.6562793 792.93674072 -1591.13677734 793.85785645 -1591.63183594 794.80688477 C-1592.92332851 797.29008114 -1594.20696629 799.77716559 -1595.48828125 802.265625 C-1596.07778564 803.395448 -1596.07778564 803.395448 -1596.67919922 804.5480957 C-1599.06362206 809.18447344 -1600.28678301 813.07923563 -1600.48828125 818.265625 C-1600.52824219 819.235 -1600.56820313 820.204375 -1600.609375 821.203125 C-1600.92746177 836.77066592 -1598.23682949 853.24505921 -1587.48828125 865.265625 C-1586.41658783 866.28023064 -1585.31143687 867.26066137 -1584.17578125 868.203125 C-1580.11154082 871.67812611 -1576.2010618 875.29685896 -1572.30078125 878.953125 C-1570.99092395 880.17972865 -1569.68102789 881.40629091 -1568.37109375 882.6328125 C-1567.72172852 883.24092773 -1567.07236328 883.84904297 -1566.40332031 884.47558594 C-1559.02958808 891.36801387 -1551.59443222 898.1891234 -1544.078125 904.92578125 C-1541.04845556 907.66299391 -1538.04783796 910.43031102 -1535.05078125 913.203125 C-1527.28415394 920.38660035 -1519.50131627 927.54775203 -1511.515625 934.48828125 C-1509.15338952 936.55921987 -1506.82032272 938.66075348 -1504.48828125 940.765625 C-1500.86804402 944.03266835 -1497.2184456 947.26083276 -1493.5390625 950.4609375 C-1491.22739328 952.49520641 -1488.95296695 954.5678481 -1486.67578125 956.640625 C-1482.30542441 960.58933945 -1477.78525046 964.3118971 -1473.20703125 968.015625 C-1470.56680396 970.20064069 -1468.02098405 972.45733891 -1465.48828125 974.765625 C-1461.26463848 978.61073375 -1456.90130195 982.23320671 -1452.4609375 985.82421875 C-1449.15077036 988.54281857 -1445.91326001 991.33639312 -1442.67578125 994.140625 C-1437.43020504 998.67311945 -1432.06770321 1003.0153074 -1426.59179688 1007.265625 C-1422.88492821 1010.14828488 -1419.26186589 1013.10737469 -1415.67578125 1016.140625 C-1410.23911024 1020.70974213 -1404.63191533 1025.02104161 -1398.97290039 1029.31030273 C-1394.28934715 1032.86676713 -1389.68125728 1036.49982804 -1385.11328125 1040.203125 C-1373.67198162 1049.44346532 -1361.71797567 1058.03818873 -1349.71923828 1066.53686523 C-1346.74058966 1068.64740954 -1343.78357903 1070.78069285 -1340.85546875 1072.9609375 C-1317.25395179 1090.43899159 -1292.190457 1106.38866654 -1267.13818359 1121.70214844 C-1266.40164551 1122.15364258 -1265.66510742 1122.60513672 -1264.90625 1123.0703125 C-1264.24778076 1123.46976074 -1263.58931152 1123.86920898 -1262.91088867 1124.28076172 C-1262.44142822 1124.6057666 -1261.97196777 1124.93077148 -1261.48828125 1125.265625 C-1261.48828125 1125.595625 -1261.48828125 1125.925625 -1261.48828125 1126.265625 C-1266.11705052 1127.16031027 -1270.63055847 1127.45340189 -1275.33203125 1127.50390625 C-1276.0856897 1127.51365479 -1276.83934814 1127.52340332 -1277.61584473 1127.53344727 C-1339.94549702 1128.17066704 -1398.12607413 1109.18781488 -1452.48828125 1079.265625 C-1453.39433105 1078.76804687 -1454.30038086 1078.27046875 -1455.23388672 1077.7578125 C-1490.19310205 1058.47652002 -1522.96283889 1035.71646021 -1554.48828125 1011.265625 C-1555.1121875 1010.78351563 -1555.73609375 1010.30140625 -1556.37890625 1009.8046875 C-1563.87810747 1004.00402331 -1571.2009663 998.03577196 -1578.41015625 991.87890625 C-1581.21535445 989.48680231 -1584.06291282 987.15106649 -1586.92578125 984.828125 C-1596.25715612 977.22427871 -1605.36042871 969.35522779 -1614.2734375 961.265625 C-1616.26240627 959.46958971 -1618.27391319 957.70609197 -1620.30078125 955.953125 C-1624.46741571 952.32520692 -1628.51326923 948.57085017 -1632.56298828 944.8137207 C-1635.90204669 941.71868899 -1639.27156077 938.6642161 -1642.67578125 935.640625 C-1644.28322337 934.18590282 -1645.88743824 932.72760601 -1647.48828125 931.265625 C-1648.28621094 930.54632812 -1649.08414062 929.82703125 -1649.90625 929.0859375 C-1692.98333338 888.40583014 -1694.96234649 821.3084941 -1699.29052734 766.43359375 C-1701.63700329 733.69394425 -1701.63700329 733.69394425 -1706.86328125 701.328125 C-1707.07750732 700.30565674 -1707.2917334 699.28318848 -1707.51245117 698.22973633 C-1708.1508481 695.23676896 -1708.81298126 692.25046118 -1709.48828125 689.265625 C-1709.68147949 688.40356445 -1709.87467773 687.54150391 -1710.07373047 686.65332031 C-1716.12540991 660.24693956 -1727.20568674 635.00486533 -1746.17578125 615.390625 C-1751.59222269 609.40701692 -1754.53012582 602.66313971 -1757.48828125 595.265625 C-1757.88772949 594.27127441 -1758.28717773 593.27692383 -1758.69873047 592.25244141 C-1770.6268839 562.26178201 -1780.10033258 531.67558566 -1787.48828125 500.265625 C-1787.7497998 499.15541992 -1788.01131836 498.04521484 -1788.28076172 496.90136719 C-1797.43231778 456.82758596 -1800.96461011 413.60829122 -1795.79589844 372.73144531 C-1795.47635753 370.17004594 -1795.20385747 367.60609369 -1794.93359375 365.0390625 C-1791.78331382 337.06824104 -1783.95137925 308.97806111 -1770.51367188 284.16455078 C-1769.46816931 282.22837959 -1768.45475947 280.27737536 -1767.44140625 278.32421875 C-1759.32561643 262.99293472 -1748.48710285 249.72009806 -1736.48828125 237.265625 C-1735.83859375 236.564375 -1735.18890625 235.863125 -1734.51953125 235.140625 C-1697.69563527 196.44432753 -1639.52120394 179.04207989 -1587.5148468 177.15789795 C-1584.46793527 177.10265825 -1581.42238365 177.07531681 -1578.375 177.0625 C-1577.25441696 177.05557632 -1576.13383392 177.04865265 -1574.97929382 177.04151917 C-1571.37808696 177.02432083 -1567.77702726 177.01793061 -1564.17578125 177.015625 C-1562.94651917 177.01428558 -1561.71725708 177.01294617 -1560.45074463 177.01156616 C-1541.58816667 177.01602584 -1523.18604903 177.69715162 -1504.48828125 180.265625 C-1502.5847141 180.50843018 -1500.68107153 180.75064497 -1498.77734375 180.9921875 C-1493.66623987 181.66373633 -1488.57774378 182.44779898 -1483.48828125 183.265625 C-1482.61961426 183.40049316 -1481.75094727 183.53536133 -1480.85595703 183.67431641 C-1464.56559613 186.22142964 -1448.56054028 189.82961209 -1432.55316162 193.75915527 C-1430.44698964 194.27575292 -1428.33997269 194.78880589 -1426.23291016 195.30175781 C-1406.5608517 200.1075915 -1387.2556047 205.62225785 -1368.06103516 212.07324219 C-1364.72538934 213.18649175 -1361.381485 214.26753718 -1358.03125 215.3359375 C-1326.95666606 225.32470955 -1296.50203543 237.46719553 -1266.48828125 250.265625 C-1265.26093213 250.78717334 -1264.03355526 251.30865639 -1262.80615234 251.83007812 C-1244.52705216 259.60627238 -1226.43935498 267.75580594 -1208.48828125 276.265625 C-1207.3782373 276.79172363 -1206.26819336 277.31782227 -1205.12451172 277.85986328 C-1189.2794425 285.39427546 -1173.56110567 293.18009645 -1157.86328125 301.015625 C-1156.98871277 301.45156982 -1156.11414429 301.88751465 -1155.21307373 302.33666992 C-1142.88503168 308.48633477 -1130.65166759 314.79652763 -1118.48828125 321.265625 C-1117.87837341 321.58948181 -1117.26846558 321.91333862 -1116.64007568 322.24700928 C-1101.74432519 330.16012706 -1086.98613717 338.29586994 -1072.33251953 346.64794922 C-1068.45021645 348.85602993 -1064.55853112 351.0473187 -1060.66723633 353.23950195 C-1041.08703384 364.2773372 -1021.72669309 375.64201271 -1002.48828125 387.265625 C-1001.91301697 387.61318848 -1001.33775269 387.96075195 -1000.74505615 388.31884766 C-979.3067734 401.2746763 -957.97117115 414.38474217 -936.81347656 427.79492188 C-934.50751611 429.25345881 -932.19778666 430.70582181 -929.88671875 432.15625 C-908.21846197 445.76525122 -886.92412468 459.93386605 -865.6516571 474.14967346 C-861.08393705 477.20166732 -856.51221756 480.24756911 -851.9375 483.2890625 C-850.73924218 484.08615814 -849.54099968 484.88327682 -848.34277344 485.68041992 C-846.16836295 487.12698676 -843.99314901 488.57231604 -841.81738281 490.0168457 C-836.19229344 493.76099467 -830.60210524 497.55132206 -825.0390625 501.38671875 C-816.06721831 507.57190167 -807.04230783 513.67755767 -798.00830078 519.77148438 C-795.2543584 521.62977654 -792.50215885 523.49063028 -789.75 525.3515625 C-779.1681207 532.496951 -768.5253727 539.53704384 -757.80053711 546.46606445 C-753.93965476 548.96360306 -750.11491145 551.50978168 -746.30078125 554.078125 C-735.48673689 561.32956763 -724.46915478 568.2708779 -713.48828125 575.265625 C-711.54426307 576.50519616 -709.60025236 577.74477903 -707.65625 578.984375 C-685.41867371 593.17806263 -685.41867371 593.17806263 -663.01171875 607.1015625 C-660.30141018 608.76200315 -657.6007258 610.43743643 -654.90234375 612.1171875 C-642.08642679 620.09002387 -629.17437793 627.89275132 -616.21728516 635.63378906 C-613.31841426 637.36719871 -610.42374768 639.10745849 -607.53027344 640.84985352 C-592.99929263 649.59428762 -578.4025402 658.22547694 -563.65893555 666.60693359 C-558.8380607 669.34806651 -554.02881717 672.10737198 -549.234375 674.89453125 C-536.55687674 682.2604409 -523.79545407 689.4174741 -510.87890625 696.35546875 C-506.42490202 698.7503859 -502.00868916 701.20268056 -497.61328125 703.703125 C-479.76456893 713.82217251 -461.5714982 723.32041152 -443.3359375 732.71875 C-438.829354 735.04316625 -434.34055565 737.3984225 -429.85905457 739.77079773 C-418.89515764 745.57018275 -407.83848035 751.16981105 -396.73828125 756.703125 C-395.81708496 757.16294769 -394.89588867 757.62277039 -393.94677734 758.0965271 C-381.20887423 764.45294244 -368.45418222 770.76058822 -355.56933594 776.81494141 C-352.56787535 778.22814892 -349.5705646 779.64980928 -346.57398987 781.07333374 C-329.66041463 789.10587425 -312.71701561 797.03632245 -295.50079346 804.40423584 C-294.06638288 805.01818776 -292.63229486 805.63289352 -291.19842529 806.24810791 C-269.30356779 815.64151771 -247.33897043 824.83447212 -225.17578125 833.578125 C-224.29311584 833.92643372 -223.41045044 834.27474243 -222.5010376 834.63360596 C-205.37950166 841.37852647 -188.17137662 847.81543215 -170.80078125 853.890625 C-169.94466248 854.1901004 -169.0885437 854.48957581 -168.20648193 854.79812622 C-142.1503424 863.89654751 -116.05830905 872.61346742 -89.32421875 879.51416016 C-85.71419731 880.47074125 -82.13423998 881.51684499 -78.55224609 882.57275391 C-66.74733914 886.05060404 -54.82350087 888.84286387 -42.81347656 891.515625 C-39.59229069 892.2421656 -36.37989737 892.99931211 -33.16796875 893.765625 C5.8568329 902.95408328 46.45294207 908.51709916 86.57421875 908.453125 C87.28549927 908.45252075 87.99677979 908.4519165 88.72961426 908.45129395 C125.50153891 908.36723212 170.12926579 903.90403608 199.51171875 879.265625 C200.48109375 878.46769531 201.45046875 877.66976562 202.44921875 876.84765625 C218.70940566 862.9909051 229.21532647 843.14347997 231.33520508 821.79150391 C232.29648783 808.03572059 232.29342311 793.79147845 229.51171875 780.265625 C229.37169434 779.51941895 229.23166992 778.77321289 229.08740234 778.00439453 C223.92450586 750.72092597 213.03927812 725.84262206 200.51171875 701.265625 C200.07972168 700.4087207 199.64772461 699.55181641 199.20263672 698.66894531 C190.88459067 682.21436324 181.26033205 666.44364262 170.85400391 651.23193359 C169.39111982 649.08896007 167.94146025 646.93735599 166.4921875 644.78515625 C152.95587138 624.7519053 138.63916237 605.88957209 122.1796875 588.1796875 C120.12894593 585.93978529 118.11845565 583.68068286 116.125 581.390625 C91.91637097 553.63279531 63.72097793 527.87025459 30.51171875 511.265625 C28.51956947 511.13423185 26.52335458 511.0627016 24.52734375 511.01953125 C23.29258301 510.98811035 22.05782227 510.95668945 20.78564453 510.92431641 C20.12920959 510.90894836 19.47277466 510.89358032 18.79644775 510.87774658 C-11.96247601 510.12761895 -40.60438081 505.8741221 -69.80078125 496.015625 C-70.5168454 495.77540619 -71.23290955 495.53518738 -71.97067261 495.28768921 C-83.3697943 491.45459607 -94.58674086 487.37052734 -105.48828125 482.265625 C-106.12797852 481.9665625 -106.76767578 481.6675 -107.42675781 481.359375 C-112.17535307 479.10991283 -116.8353984 476.70567185 -121.48828125 474.265625 C-122.36581055 473.8109082 -123.24333984 473.35619141 -124.14746094 472.88769531 C-139.54092659 464.88393291 -154.15335974 456.03428908 -168.48828125 446.265625 C-169.65762207 445.47091797 -169.65762207 445.47091797 -170.85058594 444.66015625 C-191.04968958 430.85699188 -209.79222408 415.40503543 -227.734375 398.80078125 C-230.25003406 396.48494759 -232.8002116 394.21612796 -235.36328125 391.953125 C-243.91116898 384.27521615 -252.23409558 376.15125352 -259.66015625 367.375 C-261.6497999 365.07925733 -263.71060358 362.86259252 -265.78466797 360.64331055 C-271.62760588 354.38740904 -277.14748929 347.95953707 -282.48828125 341.265625 C-283.4091931 340.13593292 -284.33112236 339.00706968 -285.25390625 337.87890625 C-306.65091416 311.60636122 -325.30061259 283.01470207 -341.48828125 253.265625 C-341.92720703 252.46688965 -342.36613281 251.6681543 -342.81835938 250.84521484 C-364.69764622 210.83715869 -380.78965789 167.43579525 -389.05273438 122.54101562 C-389.33694982 121.05621297 -389.64205202 119.57521291 -389.97070312 118.09960938 C-393.42689123 102.35176398 -393.81153728 86.53689103 -393.74902344 70.47924805 C-393.73828437 67.20407659 -393.74899305 63.92945203 -393.76171875 60.65429688 C-393.77417158 44.36776136 -392.76011535 28.82331734 -388.86328125 12.953125 C-388.60530762 11.89552979 -388.34733398 10.83793457 -388.08154297 9.74829102 C-385.47193304 -0.4938506 -381.83864914 -10.11667042 -377.48828125 -19.734375 C-377.17665039 -20.43852539 -376.86501953 -21.14267578 -376.54394531 -21.86816406 C-361.05480433 -56.46877425 -332.29718237 -82.54642846 -297.2331543 -96.26928711 C-206.94295182 -130.3946336 -102.58248623 -80.97088303 0 0 Z " fill="#A36D3E" transform="translate(2913.48828125,1093.734375)"/>
<path d="M0 0 C4.75443286 3.02362149 8.67240733 6.68372409 12.62890625 10.671875 C13.48613281 11.50460937 14.34335938 12.33734375 15.2265625 13.1953125 C18.88293296 16.77998942 22.41259835 20.40300271 25.7421875 24.29296875 C30.42854651 29.68863503 35.54329303 34.65784213 40.62890625 39.671875 C46.21604655 45.18037592 51.72841508 50.68597342 56.83203125 56.65234375 C60.56527099 60.84818059 64.62947696 64.73213868 68.62890625 68.671875 C73.87898541 73.84359476 78.99962397 79.0222671 83.796875 84.6171875 C87.54579832 88.8217369 91.61735215 92.72019484 95.62890625 96.671875 C100.89945191 101.8637558 106.04320482 107.06270214 110.859375 112.6796875 C114.26878893 116.51810053 117.96953939 120.07390692 121.62890625 123.671875 C126.57847662 128.53839889 131.36220811 133.44233569 135.88671875 138.70703125 C138.97288676 142.18761983 142.30929892 145.41586169 145.62890625 148.671875 C150.25739724 153.21169758 154.68267471 157.82174338 158.9140625 162.734375 C161.67776184 165.85691458 164.65043271 168.75607145 167.62890625 171.671875 C171.81961231 175.81451248 175.85581253 179.98127427 179.66015625 184.484375 C183.11519393 188.32330575 186.83896087 191.90052404 190.5090332 195.5324707 C194.12617757 199.12641276 197.5653566 202.78914668 200.859375 206.68359375 C203.6275246 209.79394286 206.61784566 212.68114485 209.58056641 215.60400391 C212.82940536 218.82602066 215.85357075 222.16554632 218.8203125 225.64453125 C221.80296515 228.9879367 225.03247317 232.0826387 228.21875 235.23046875 C230.89745157 237.94390227 233.37498743 240.77964523 235.8515625 243.67578125 C238.57623718 246.73580051 241.51768697 249.56894344 244.43359375 252.4453125 C247.06897368 255.11820674 249.50657114 257.92555803 251.94921875 260.7734375 C254.12169944 263.22884591 256.44717694 265.50299903 258.78637695 267.7980957 C260.56040008 269.60220694 262.21838719 271.46035147 263.8671875 273.37890625 C267.5760702 277.64436633 271.42631099 281.75949399 275.31640625 285.859375 C276.72571559 287.35113262 278.1345653 288.84332458 279.54296875 290.3359375 C280.23293945 291.0671582 280.92291016 291.79837891 281.63378906 292.55175781 C288.13661478 299.46200482 294.59494104 306.41097491 300.796875 313.59375 C302.689086 315.7401386 304.62665611 317.84102515 306.57202148 319.93920898 C311.36131381 325.10739843 315.89716978 330.39814538 320.31640625 335.890625 C322.82866271 338.91212263 325.45354396 341.79565275 328.12890625 344.671875 C335.7077306 352.84943951 342.57426404 361.53630938 349.37890625 370.359375 C349.92208496 371.06022217 350.46526367 371.76106934 351.02490234 372.4831543 C361.44979808 386.10474032 361.44979808 386.10474032 360.62890625 392.671875 C355.18812623 392.19119149 351.17287149 390.75325738 346.44140625 387.984375 C345.75925049 387.59209717 345.07709473 387.19981934 344.37426758 386.7956543 C335.07919796 381.32545001 326.35440392 374.99545721 317.62890625 368.671875 C316.8198584 368.08712402 316.01081055 367.50237305 315.17724609 366.89990234 C304.15379 358.91185834 293.36208085 350.64670101 282.64794922 342.25 C279.71604062 339.95836068 276.76806738 337.68798321 273.81640625 335.421875 C272.78515625 334.62910156 271.75390625 333.83632812 270.69140625 333.01953125 C268.63158488 331.44051002 266.56903227 329.86504593 264.50390625 328.29296875 C257.78706954 323.17109649 251.19593308 317.9144487 244.65454102 312.5703125 C239.09287486 308.03159685 233.46249955 303.58694808 227.80859375 299.1640625 C223.38580291 295.70355251 219.008258 292.18707373 214.62890625 288.671875 C213.87867188 288.07375 213.1284375 287.475625 212.35546875 286.859375 C203.68907383 279.94929267 195.10314533 272.94001158 186.50585938 265.94433594 C184.42213894 264.24902408 182.33813448 262.55406253 180.25390625 260.859375 C179.5781958 260.30991211 178.90248535 259.76044922 178.20629883 259.19433594 C174.71449202 256.35748512 171.21264787 253.53468559 167.69140625 250.734375 C160.92103224 245.3363741 154.26575298 239.79655527 147.58691406 234.28613281 C140.62760386 228.54860675 133.6301616 222.85805389 126.62890625 217.171875 C124.58112002 215.50825787 122.53341658 213.84453903 120.48583984 212.18066406 C118.86324257 210.86227711 117.24024848 209.54437855 115.6171875 208.2265625 C111.35831489 204.75729109 107.13140688 201.25715379 102.95239258 197.69238281 C97.97051633 193.44280743 92.93120668 189.30653823 87.75390625 185.296875 C81.98145586 180.82191311 76.45132199 176.1136441 70.95800781 171.30175781 C66.77925303 167.64725873 62.51922578 164.13297506 58.15625 160.69921875 C55.0751217 158.22764906 52.07146937 155.6724409 49.06640625 153.109375 C45.47682106 150.05019893 41.87575771 147.03873199 38.12890625 144.171875 C33.82143614 140.87421473 29.69464418 137.37602213 25.56640625 133.859375 C22.11804268 130.92425624 18.64211241 128.02955582 15.12890625 125.171875 C10.52437045 121.42399702 5.98871434 117.60204056 1.46484375 113.7578125 C-1.95168915 110.85942677 -5.39614213 108.000324 -8.87109375 105.171875 C-13.47562955 101.42399702 -18.01128566 97.60204056 -22.53515625 93.7578125 C-25.95168915 90.85942677 -29.39614213 88.000324 -32.87109375 85.171875 C-33.7528125 84.45 -34.63453125 83.728125 -35.54296875 82.984375 C-37.02508721 81.77247704 -38.50796 80.56146189 -39.99804688 79.359375 C-50.24229301 71.07929546 -59.47181767 63.10923838 -62.37109375 49.671875 C-63.66812246 35.12545176 -61.13398057 23.61503448 -52.24609375 12.109375 C-39.44559395 -3.02039607 -18.39999868 -9.1104305 0 0 Z " fill="#A36D3E" transform="translate(1465.37109375,1762.328125)"/>
<path d="M0 0 C10.91696073 7.77404163 20.10671186 18.01344517 29.5 27.5 C32.21834453 30.24519554 34.94016866 32.98687432 37.6640625 35.7265625 C38.26948883 36.34028717 38.87491516 36.95401184 39.49868774 37.58633423 C42.43198346 40.53611507 45.40689016 43.36691619 48.56982422 46.06982422 C53.72785405 50.52894368 58.49208392 55.380275 63.29170227 60.21653748 C65.00594586 61.94372676 66.72345302 63.6676132 68.44177246 65.39074707 C72.70586477 69.66809807 76.96445061 73.95091759 81.22320557 78.23358154 C84.83375702 81.86397448 88.44642642 85.49223537 92.06184387 89.11778259 C93.74103635 90.8033829 95.41715076 92.49200141 97.09313965 94.18078613 C98.13811418 95.22939834 99.18323228 96.27786751 100.22851562 97.32617188 C101.1281604 98.23105347 102.02780518 99.13593506 102.95471191 100.0682373 C105.10644684 102.18209121 107.34378802 104.16394824 109.63018703 106.13102818 C113.47056551 109.48117678 117.1166765 112.97583781 120.71229553 116.58531189 C121.67069144 117.54136781 121.67069144 117.54136781 122.64844888 118.516738 C124.76547885 120.62981411 126.87895783 122.74640464 128.99243164 124.86303711 C130.51897366 126.3882226 132.04572801 127.91319559 133.57267761 129.43797302 C137.70297879 133.56372988 141.83012794 137.69262622 145.95656896 141.82224345 C150.2839529 146.15216652 154.61378457 150.4796408 158.94322205 154.80751038 C166.21207594 162.07454711 173.47882376 169.34368483 180.74438477 176.61401367 C189.13357128 185.00864192 197.52635407 193.39966174 205.92101389 201.78881639 C213.14005565 209.00331412 220.35713924 216.21976638 227.57260221 223.43784338 C231.87698448 227.74378132 236.18203156 232.04904875 240.48884773 236.35255241 C244.5384885 240.39929573 248.58565833 244.44849438 252.63096809 248.49956703 C254.11233052 249.98224701 255.59453585 251.4640854 257.07766342 252.94499969 C259.10900264 254.97358778 261.13720718 257.0052612 263.16468811 259.03770447 C263.7458292 259.61661483 264.32697028 260.1955252 264.9257217 260.7919783 C268.52923135 264.41249883 271.93206868 268.16260776 275.25922483 272.03883559 C277.82724385 274.95712845 280.59617724 277.65945612 283.375 280.375 C287.41651627 284.37136286 291.3324455 288.39385636 295.01171875 292.73046875 C297.015965 295.03724274 299.08830485 297.26809149 301.17456055 299.50048828 C327.875 328.09184682 327.875 328.09184682 327.875 336.875 C320.99435213 336.47206967 316.40880958 335.09484745 310.51171875 331.6015625 C309.74196213 331.15922272 308.97220551 330.71688293 308.17912292 330.26113892 C299.10375728 324.96979796 290.38809224 319.12942805 281.6875 313.25 C279.96688835 312.09451065 278.2460196 310.93940407 276.52490234 309.78466797 C263.87821389 301.28582425 251.32270364 292.6629807 238.875 283.875 C237.36618739 282.81597589 235.85708167 281.75736924 234.34765625 280.69921875 C221.41206938 271.61697104 208.61920637 262.33682933 195.84375 253.03125 C191.85997789 250.13777341 187.8673859 247.25657477 183.875 244.375 C178.17917116 240.26393532 172.4897141 236.14456302 166.8125 232.0078125 C164.50331414 230.33119617 162.19060799 228.65989959 159.875 226.9921875 C151.20746378 220.74849327 142.5760437 214.46017165 133.98681641 208.10913086 C128.60447966 204.13435505 123.18631487 200.2130029 117.75 196.3125 C111.06283142 191.51020227 104.50348836 186.56270957 97.98339844 181.53662109 C93.16441178 177.83220713 88.27512705 174.25278221 83.31225586 170.74438477 C75.90577179 165.50121691 68.62727333 160.08373735 61.33056641 154.68945312 C57.34850788 151.74705315 53.36156062 148.8112956 49.375 145.875 C47.79164211 144.70836666 46.2083088 143.54169996 44.625 142.375 C43.84125 141.7975 43.0575 141.22 42.25 140.625 C39.875 138.875 37.5 137.125 35.125 135.375 C34.34068604 134.79709717 33.55637207 134.21919434 32.74829102 133.6237793 C31.17060517 132.46124831 29.59296817 131.29865103 28.01538086 130.13598633 C23.97104621 127.15548844 19.92577703 124.17627242 15.87890625 121.19921875 C8.25003203 115.58551885 0.6349963 109.95658275 -6.93359375 104.26171875 C-14.29739127 98.75464374 -21.71812785 93.32391384 -29.125 87.875 C-32.52128679 85.37561541 -35.91699731 82.87544966 -39.3125 80.375 C-40.07763916 79.81208252 -40.84277832 79.24916504 -41.63110352 78.66918945 C-43.08974962 77.59509696 -44.54691724 76.51899313 -46.00244141 75.44067383 C-47.44094565 74.37958253 -48.88619275 73.32758297 -50.33740234 72.28393555 C-58.75940705 66.15665268 -63.85945951 58.13357099 -66.125 47.875 C-67.38864227 35.21278866 -65.56655154 23.53846372 -57.93359375 13.03125 C-43.74383159 -3.88613383 -20.23154785 -11.71726919 0 0 Z " fill="#A36D3E" transform="translate(1411.125,1872.125)"/>
<path d="M0 0 C4.95 0 9.9 0 15 0 C15 110.88 15 221.76 15 336 C10.38 336 5.76 336 1 336 C-0.59865963 334.40134037 -0.16483531 332.69543968 -0.20532227 330.48022461 C-0.22526749 329.51930405 -0.24521271 328.55838348 -0.26576233 327.56834412 C-0.29083107 326.00117393 -0.29083107 326.00117393 -0.31640625 324.40234375 C-0.33718735 323.33834854 -0.35796844 322.27435333 -0.37937927 321.17811584 C-0.44499254 317.7646456 -0.50381423 314.35109571 -0.5625 310.9375 C-0.60567403 308.62954891 -0.64928794 306.321606 -0.69335938 304.01367188 C-0.80068584 298.34253318 -0.90242992 292.67131448 -1 287 C-1.52891846 288.01827881 -2.05783691 289.03655762 -2.6027832 290.08569336 C-3.31435704 291.44137938 -4.0262043 292.79692192 -4.73828125 294.15234375 C-5.08475708 294.82116577 -5.43123291 295.48998779 -5.78820801 296.17907715 C-8.87645275 302.03510529 -12.6539025 307.01196395 -17 312 C-17.78503906 312.98097656 -18.57007812 313.96195313 -19.37890625 314.97265625 C-33.19528164 331.5276954 -56.84227673 339.65243875 -77.60546875 341.68359375 C-105.47068385 343.92122598 -133.75500873 339.61309601 -156.375 322.0625 C-157.93623157 320.73093721 -159.47859158 319.37688776 -161 318 C-162.13501953 316.98679687 -162.13501953 316.98679687 -163.29296875 315.953125 C-177.51942212 302.53471459 -186.58404021 284.55791241 -192 266 C-192.36996094 264.80890625 -192.73992188 263.6178125 -193.12109375 262.390625 C-204.47741194 223.62106987 -200.80304798 174.51205863 -181.82714844 138.82128906 C-177.63854416 131.20858155 -172.87910285 124.43122729 -167 118 C-166.26910156 117.19949219 -165.53820313 116.39898438 -164.78515625 115.57421875 C-153.87645094 104.16704888 -138.49807155 94.70767262 -123 91 C-121.93394531 90.72414063 -120.86789063 90.44828125 -119.76953125 90.1640625 C-91.1167916 83.89896998 -58.27749185 86.55331739 -32.98046875 101.9921875 C-17.55257304 112.38529156 -10.26928909 123.52126384 -1 140 C-0.67 93.8 -0.34 47.6 0 0 Z M-154.6640625 126.2890625 C-180.61017575 156.40043808 -185.5204156 195.48776132 -182.79345703 233.91015625 C-179.90923567 263.52658429 -168.59644112 292.79023511 -145.3359375 312.28125 C-129.39511094 324.01028626 -110.98535983 329.42449637 -91.25 329.3125 C-90.20013916 329.30686035 -89.15027832 329.3012207 -88.06860352 329.29541016 C-64.67990477 328.93201371 -43.88819345 320.36282271 -27.43896484 303.55517578 C-16.54613459 291.78263952 -8.78374491 276.54403316 -5 261 C-4.62101562 259.6078125 -4.62101562 259.6078125 -4.234375 258.1875 C-0.73254813 245.00415178 0.32658208 232.32909822 0.26074219 218.75341797 C0.25004559 216.13615606 0.26068244 213.51958462 0.2734375 210.90234375 C0.30035036 180.09003118 -6.91470014 149.43218541 -28 126 C-28.64839844 125.26910156 -29.29679687 124.53820313 -29.96484375 123.78515625 C-42.56554851 110.3598655 -62.52405091 101.88121184 -80.82983398 100.83886719 C-109.67923306 100.42345516 -133.99013447 104.54463981 -154.6640625 126.2890625 Z " fill="#A46F40" transform="translate(3134,2458)"/>
<path d="M0 0 C4.95 0 9.9 0 15 0 C15.0685655 32.19611107 15.12159475 64.39220121 15.15319599 96.58836832 C15.15694772 100.39688434 15.16083072 104.20540021 15.16479492 108.01391602 C15.16558185 108.77206351 15.16636878 109.53021099 15.16717956 110.31133265 C15.18020274 122.55717155 15.2038394 134.80296782 15.23145839 147.04878151 C15.25959882 159.63154902 15.27619444 172.21429434 15.28226548 184.79709202 C15.28636409 192.54969972 15.29926806 200.30218691 15.3237494 208.05475748 C15.34161157 214.01812944 15.34334399 219.98139962 15.33932304 225.94480133 C15.34014316 228.37746735 15.34604038 230.81013826 15.35761642 233.24277687 C15.41769942 246.52921384 14.94106649 259.00738285 12 272 C11.7965758 272.94324851 11.59315161 273.88649702 11.38356304 274.85832882 C6.66815223 296.18702758 -4.96469258 315.47734878 -23.6640625 327.41796875 C-49.88425188 343.26692288 -83.66140408 347.91343867 -113.50390625 341.0390625 C-132.38629095 335.42709118 -149.9157489 325.56361892 -160 308 C-165.64165668 296.67056956 -168.49917422 285.64574683 -168 273 C-163.71 273 -159.42 273 -155 273 C-154.773125 274.876875 -154.54625 276.75375 -154.3125 278.6875 C-152.16565903 292.32364161 -146.71175734 304.63156775 -136 313.6875 C-113.46705888 329.71092479 -87.23608593 331.9969747 -60.4375 327.5 C-48.24773216 325.18675663 -37.14882035 320.23195721 -27.578125 312.2265625 C-26 311 -26 311 -23.921875 310.0859375 C-21.50455836 308.72005533 -21.12072496 307.49972398 -20 305 C-18.96088166 303.68944969 -17.89584612 302.39923319 -16.8125 301.125 C-4.10469439 284.97549704 -0.80739064 266.6245335 -0.90234375 246.6484375 C-0.9037587 245.50839264 -0.90517365 244.36834778 -0.90663147 243.1937561 C-0.91218521 239.58747627 -0.92472893 235.98126076 -0.9375 232.375 C-0.94252098 229.91536549 -0.94708284 227.45572999 -0.95117188 224.99609375 C-0.96213945 218.99737424 -0.97883086 212.99869172 -1 207 C-1.43425293 207.71647705 -1.86850586 208.4329541 -2.31591797 209.17114258 C-5.83364922 214.85586875 -9.3236998 220.02690279 -14.125 224.6875 C-14.6821167 225.23220947 -15.2392334 225.77691895 -15.81323242 226.33813477 C-33.24224327 242.85124705 -56.74114698 248.58239016 -80.15136719 248.44604492 C-82.3674828 248.43752889 -84.58101074 248.46645465 -86.796875 248.49804688 C-106.54912317 248.59487897 -126.1670026 243.58827034 -141 230 C-141.69609375 229.40703125 -142.3921875 228.8140625 -143.109375 228.203125 C-158.02580826 214.67426693 -163.49448479 193.36477677 -165 174 C-165.57856828 161.6976016 -165.36121423 149.3499842 -165.30418181 137.03838825 C-165.28521751 132.24319567 -165.28364922 127.4479953 -165.28010559 122.652771 C-165.2708424 113.6046043 -165.24630758 104.55654848 -165.21605712 95.50843024 C-165.18233302 85.19378904 -165.16598218 74.87914208 -165.15097082 64.56445932 C-165.11975179 43.37624303 -165.06648869 22.18813248 -165 1 C-160.05 1 -155.1 1 -150 1 C-149.99120064 4.13137199 -149.99120064 4.13137199 -149.98222351 7.32600403 C-149.92538185 27.05451371 -149.85221389 46.78291557 -149.76428509 66.51131153 C-149.71947298 76.65246854 -149.68002537 86.79359158 -149.65356445 96.93481445 C-149.63046552 105.78218018 -149.59693674 114.62943704 -149.55129844 123.47671622 C-149.52752531 128.15376745 -149.50869303 132.83071194 -149.50238609 137.50782204 C-149.49626227 141.92624232 -149.47600574 146.34439006 -149.44572449 150.76270866 C-149.43705941 152.36887837 -149.43319714 153.97508387 -149.43499184 155.58127594 C-149.44156626 164.19401364 -148.96503658 172.55058195 -147.64875793 181.0710907 C-147.53114505 181.83652657 -147.41353216 182.60196245 -147.29235524 183.39059335 C-144.51197819 199.89160597 -137.40670673 213.72478681 -124 224 C-104.28506884 236.24529886 -79.20869682 236.50516154 -57 232 C-38.11777284 227.48245282 -23.22689166 218.31729067 -13.02099609 201.74707031 C-8.46430816 193.94992568 -5.71684705 185.80134644 -3.6875 177.0625 C-3.52789795 176.38421143 -3.3682959 175.70592285 -3.20385742 175.00708008 C-0.60993149 162.7049101 -0.84623034 149.76254001 -0.79467773 137.25219727 C-0.78506641 135.74261222 -0.77505462 134.23302969 -0.76467896 132.72344971 C-0.73797552 128.67696263 -0.7167821 124.6304643 -0.69667697 120.58393979 C-0.6746005 116.3358826 -0.64731922 112.08785869 -0.62062073 107.83982849 C-0.57098335 99.81862977 -0.52593885 91.79741229 -0.48259836 83.77617735 C-0.43297625 74.6345062 -0.37815188 65.49286848 -0.32291877 56.35122979 C-0.20954404 37.56751748 -0.10279504 18.78377298 0 0 Z " fill="#565554" transform="translate(2090,2548)"/>
<path d="M0 0 C0.85078125 0.68835937 1.7015625 1.37671875 2.578125 2.0859375 C13.84607599 11.66023941 19.97973494 22.83700302 27 36 C27.33 19.5 27.66 3 28 -14 C32.95 -14 37.9 -14 43 -14 C43 65.86 43 145.72 43 228 C38.38 228 33.76 228 29 228 C28.67 211.83 28.34 195.66 28 179 C25.03 184.61 22.06 190.22 19 196 C16.38174253 199.60010402 13.9739467 202.76769886 11 206 C10.29101562 206.77730469 9.58203125 207.55460937 8.8515625 208.35546875 C-4.88878275 222.74667246 -23.45481418 230.96602508 -43 234 C-44.05960938 234.16822266 -44.05960938 234.16822266 -45.140625 234.33984375 C-58.92802112 236.09942402 -73.38425458 235.61395842 -87 233 C-88.57587891 232.72542969 -88.57587891 232.72542969 -90.18359375 232.4453125 C-113.36657658 227.84844197 -134.68364423 213.51627849 -148 194 C-164.21304644 169.02353487 -170.39128081 140.28098734 -170.31567383 110.82226562 C-170.31252035 108.26648957 -170.3360564 105.71188373 -170.36132812 103.15625 C-170.48267786 71.3607121 -162.30670082 38.99004803 -142 14 C-141.45988281 13.29488281 -140.91976563 12.58976562 -140.36328125 11.86328125 C-129.46089734 -1.67544738 -112.68853001 -11.54972533 -96 -16 C-95.35160156 -16.19078125 -94.70320313 -16.3815625 -94.03515625 -16.578125 C-63.61792315 -25.01062527 -24.59310558 -20.39241985 0 0 Z M-127.37109375 19.9296875 C-153.01790994 48.99290703 -156.75785547 87.86828345 -155 125 C-153.07344105 150.09823022 -145.19249129 176.06609615 -128 195 C-127.22785156 195.85335937 -126.45570312 196.70671875 -125.66015625 197.5859375 C-110.48086117 213.55657024 -90.11330267 221.49077452 -68.30859375 222.203125 C-43.74106473 222.59582527 -20.72321599 216.92381211 -2.40234375 199.5234375 C12.12320676 184.26570477 20.30010375 165.65277292 25.25 145.3125 C25.41338867 144.64806885 25.57677734 143.9836377 25.74511719 143.29907227 C28.46285284 131.44157421 28.27751701 119.22438493 28.3125 107.125 C28.31511841 106.25827667 28.31773682 105.39155334 28.32043457 104.49856567 C28.32472332 91.24372554 27.46889177 78.84728845 24 66 C23.566875 64.12054687 23.566875 64.12054687 23.125 62.203125 C18.15161207 42.22076279 5.57143698 20.37450777 -11.578125 8.43359375 C-48.64374892 -13.50686428 -96.46552004 -12.37046087 -127.37109375 19.9296875 Z " fill="#565553" transform="translate(1505,2568)"/>
<path d="M0 0 C2.33271117 -0.00434172 4.6634753 -0.04067247 6.99584961 -0.07861328 C33.17979524 -0.27476777 58.18316219 9.04959589 76.98608398 27.42919922 C105.42009655 56.47837071 111.40576765 95.96099689 111.00952148 134.92529297 C110.73719164 152.836246 107.70748023 169.47537494 101.79858398 186.37060547 C101.56800293 187.05058594 101.33742188 187.73056641 101.09985352 188.43115234 C93.02817772 211.90173324 77.03117598 232.04304832 54.60131836 243.11987305 C47.470461 246.52241058 40.45129591 249.3550764 32.79858398 251.37060547 C32.06913574 251.57298828 31.3396875 251.77537109 30.58813477 251.98388672 C22.04187887 254.04278252 13.22464998 253.81234451 4.48608398 253.80810547 C3.63987488 253.8085083 2.79366577 253.80891113 1.92181396 253.80932617 C-18.12640074 253.75428386 -34.74728225 250.51178041 -52.20141602 240.37060547 C-53.04704102 239.88849609 -53.89266602 239.40638672 -54.76391602 238.90966797 C-76.8073274 225.28998879 -91.96685895 200.2612175 -97.9206543 175.36279297 C-107.47453033 132.05705602 -107.01784118 83.30163961 -83.01586914 44.45166016 C-80.64083421 40.88910776 -77.99291831 37.61171256 -75.20141602 34.37060547 C-74.4834082 33.50435547 -73.76540039 32.63810547 -73.02563477 31.74560547 C-60.11943813 16.70747937 -44.17404963 7.49619654 -25.20141602 2.37060547 C-24.52296631 2.1851416 -23.8445166 1.99967773 -23.14550781 1.80859375 C-15.50874528 -0.01227423 -7.80487963 -0.00161776 0 0 Z M-60.31469727 39.04638672 C-84.37859934 66.00858412 -89.81449636 104.15685569 -88.4128418 139.04248047 C-86.56590826 168.11568828 -77.76758676 197.13512147 -57.20141602 218.37060547 C-56.47438477 219.12599609 -55.74735352 219.88138672 -54.99829102 220.65966797 C-38.70517137 236.28899385 -16.4430216 241.74345164 5.56347656 241.67553711 C28.85086 241.18975378 50.33145422 232.65624794 66.97827148 216.21826172 C91.73040209 189.58805116 96.88582454 152.43984967 95.93286133 117.54785156 C95.67289395 111.39655067 94.87515012 105.43297083 93.79858398 99.37060547 C93.68901367 98.36771484 93.57944336 97.36482422 93.46655273 96.33154297 C90.49649267 70.54750506 77.4646209 45.84813816 57.39624023 29.40185547 C22.79862704 3.83214458 -30.9147557 7.67160548 -60.31469727 39.04638672 Z " fill="#A46F40" transform="translate(2783.201416015625,2545.62939453125)"/>
<path d="M0 0 C0.74223816 0.00337372 1.48447632 0.00674744 2.24920654 0.01022339 C33.2311507 0.21373983 56.21584365 10.44587901 78.08984375 32.2734375 C87.02314486 42.02335616 93.17553921 54.34912481 98.25 66.4375 C98.63929688 67.36304687 99.02859375 68.28859375 99.4296875 69.2421875 C103.26649464 79.50341589 104.64939712 90.6428986 106.25 101.4375 C106.41121338 102.5056897 106.41121338 102.5056897 106.57568359 103.59545898 C107.55779281 111.06530762 107.49373719 118.60346552 107.5 126.125 C107.50067474 126.85471008 107.50134949 127.58442017 107.50204468 128.33624268 C107.4500764 163.86797442 99.4756474 200.928613 73.6875 227.03125 C67.6760194 232.7011692 61.43094545 237.35992818 54.25 241.4375 C53.33863281 241.96085937 52.42726563 242.48421875 51.48828125 243.0234375 C38.40825442 250.05417498 24.17274392 253.61482464 9.34765625 253.5703125 C8.62565536 253.57126923 7.90365448 253.57222595 7.15977478 253.57321167 C5.64468294 253.573887 4.1295881 253.57207832 2.61450195 253.56787109 C0.32170981 253.56252149 -1.97088577 253.56783421 -4.26367188 253.57421875 C-30.68948046 253.59380074 -53.78772137 245.54960589 -73.16308594 227.04052734 C-81.38318949 218.73695812 -87.41094855 208.75735486 -92.75 198.4375 C-93.28367187 197.42042969 -93.81734375 196.40335938 -94.3671875 195.35546875 C-111.86148299 158.59931942 -111.13542125 107.53160806 -98.25 69.51171875 C-88.86345813 43.29916635 -71.84019059 21.34783213 -46.46459961 9.04541016 C-31.54197051 2.03795121 -16.34155222 -0.14484505 0 0 Z M-57.75 33.4375 C-58.45769531 34.07558594 -59.16539062 34.71367187 -59.89453125 35.37109375 C-80.25709072 54.72136537 -89.79985337 84.92568973 -90.91113281 112.42480469 C-90.93065635 113.81959506 -90.94443242 115.21447508 -90.953125 116.609375 C-90.96009399 117.36562164 -90.96706299 118.12186829 -90.97424316 118.90103149 C-90.99154718 121.32991154 -90.99796335 123.75856087 -91 126.1875 C-91.00100708 127.01630676 -91.00201416 127.84511353 -91.00305176 128.69903564 C-90.99278465 141.1774997 -90.49396342 153.21954752 -87.75 165.4375 C-87.34974609 167.36335938 -87.34974609 167.36335938 -86.94140625 169.328125 C-81.60504964 192.00171133 -69.02922006 214.99446152 -49.1796875 227.94921875 C-48.37789062 228.44035156 -47.57609375 228.93148437 -46.75 229.4375 C-46.01007812 229.89769531 -45.27015625 230.35789062 -44.5078125 230.83203125 C-25.33580686 242.12372852 -0.25752281 244.91123581 21.3125 239.8125 C23.98966123 239.10637241 26.62049789 238.30338449 29.25 237.4375 C29.89759277 237.22851074 30.54518555 237.01952148 31.21240234 236.80419922 C53.52207901 229.36764033 68.78962447 213.42918431 79.4375 192.875 C96.73378905 157.81472481 96.87433676 112.2066181 85.25 75.4375 C80.75962581 62.58472403 74.33984354 50.60159778 65.25 40.4375 C64.49976562 39.59316406 63.74953125 38.74882812 62.9765625 37.87890625 C47.94122918 21.89474122 27.48864127 14.09827675 5.8984375 13.0859375 C-18.12827709 12.37445192 -39.50607378 16.91289667 -57.75 33.4375 Z " fill="#A46F40" transform="translate(2531.75,2545.5625)"/>
<path d="M0 0 C65.01 0 130.02 0 197 0 C197 4.95 197 9.9 197 15 C137.27 15 77.54 15 16 15 C16 60.87 16 106.74 16 154 C63.52 154 111.04 154 160 154 C160 158.95 160 163.9 160 169 C112.48 169 64.96 169 16 169 C16 224.11 16 279.22 16 336 C10.72 336 5.44 336 0 336 C0 225.12 0 114.24 0 0 Z " fill="#A36E3F" transform="translate(2209,2457)"/>
<path d="M0 0 C2.06719473 -0.00215757 4.13382939 -0.02024706 6.20092773 -0.03930664 C29.21158741 -0.1407041 49.56514873 5.99294489 66.54272461 21.93530273 C78.43018166 34.54498624 87.16772461 52.65732158 87.16772461 70.18530273 C82.21772461 70.18530273 77.26772461 70.18530273 72.16772461 70.18530273 C71.97178711 69.14374023 71.77584961 68.10217773 71.57397461 67.02905273 C68.13964088 50.08846454 61.74627935 34.53188717 47.04272461 24.43530273 C26.5248968 12.18712575 0.64629191 11.2608704 -22.16430664 16.79858398 C-35.35587438 20.45578728 -47.88242161 27.54625362 -55.70727539 39.06030273 C-61.21624936 48.99998175 -63.88944939 58.96710254 -61.06665039 70.24389648 C-55.7998257 85.64726869 -44.36321835 94.64619455 -30.38354492 101.94018555 C-17.77578026 108.0932573 -4.40441222 112.70600494 9.16772461 116.18530273 C61.25633562 129.86923702 61.25633562 129.86923702 76.16772461 143.18530273 C76.90249023 143.8053418 77.63725586 144.42538086 78.39428711 145.06420898 C87.21459169 153.07328154 93.44688002 164.6281761 94.35302734 176.64208984 C94.43525434 179.30559458 94.44077805 181.9582094 94.41772461 184.62280273 C94.42545898 185.51290039 94.43319336 186.40299805 94.44116211 187.32006836 C94.39296349 203.81604617 87.8377863 218.3993039 76.54272461 230.37280273 C56.79777909 249.16474937 28.92493658 254.77525479 2.53491211 254.30639648 C1.07910457 254.26896497 -0.37664016 254.22892371 -1.83227539 254.18530273 C-2.84032227 254.1556543 -3.84836914 254.12600586 -4.88696289 254.09545898 C-27.31514346 252.69795837 -49.20687528 243.43467889 -64.83227539 227.18530273 C-76.92934058 212.84564435 -84.83227539 194.07163132 -84.83227539 175.18530273 C-79.88227539 175.18530273 -74.93227539 175.18530273 -69.83227539 175.18530273 C-69.48036133 176.53881836 -69.12844727 177.89233398 -68.76586914 179.28686523 C-63.27475529 199.81294704 -55.83634065 217.70735074 -36.83227539 229.18530273 C-14.72117719 241.18145959 12.16660903 242.3563368 36.12866211 235.56201172 C50.68982483 231.21971331 63.86428851 223.92838101 71.91772461 210.52124023 C72.33022461 209.75038086 72.74272461 208.97952148 73.16772461 208.18530273 C73.78647461 207.05995117 73.78647461 207.05995117 74.41772461 205.91186523 C77.29365755 199.58081842 77.54911669 193.4054695 77.60522461 186.56030273 C77.61537598 185.67761719 77.62552734 184.79493164 77.63598633 183.88549805 C77.48775406 172.70753212 73.59631013 164.50935442 66.16772461 156.18530273 C57.48087687 148.64630927 46.87465803 144.08800159 35.98022461 140.74780273 C35.03244141 140.45123779 34.0846582 140.15467285 33.1081543 139.84912109 C26.42403655 137.79098908 19.69454128 135.97238371 12.91772461 134.24780273 C-7.29831435 129.08706987 -26.92911673 123.09679182 -45.83227539 114.18530273 C-46.95118164 113.66194336 -48.07008789 113.13858398 -49.22290039 112.59936523 C-62.98653328 105.64065699 -71.93140958 94.68914326 -77.01635742 80.24487305 C-78.43515524 74.92459351 -78.40970997 69.7230731 -78.33227539 64.24780273 C-78.34774414 63.15790039 -78.36321289 62.06799805 -78.37915039 60.94506836 C-78.31310472 47.0507096 -73.0812873 34.24575665 -63.68774414 23.95874023 C-50.43674932 11.29357887 -34.50747329 4.89646528 -16.83227539 1.18530273 C-16.24285156 1.00950684 -15.65342773 0.83371094 -15.04614258 0.65258789 C-10.14795625 -0.38128161 -4.99344305 -0.00058165 0 0 Z " fill="#565654" transform="translate(1688.832275390625,2548.814697265625)"/>
<path d="M0 0 C74.58 0 149.16 0 226 0 C226 4.95 226 9.9 226 15 C191.35 15 156.7 15 121 15 C121 121.26 121 227.52 121 337 C115.72 337 110.44 337 105 337 C105 230.74 105 124.48 105 15 C70.35 15 35.7 15 0 15 C0 10.05 0 5.1 0 0 Z " fill="#565554" transform="translate(1145,2460)"/>
<path d="M0 0 C5.28 0 10.56 0 16 0 C16 22.11 16 44.22 16 67 C31.84 67 47.68 67 64 67 C64 71.29 64 75.58 64 80 C48.16 80 32.32 80 16 80 C16 155.9 16 231.8 16 310 C10.72 310 5.44 310 0 310 C0 207.7 0 105.4 0 0 Z " fill="#5A5A58" transform="translate(1827,2487)"/>
<path d="M0 0 C0.66 0.33 1.32 0.66 2 1 C0.625 3.5 0.625 3.5 -1 6 C-1.66 6 -2.32 6 -3 6 C-3 6.66 -3 7.32 -3 8 C-4.2375 8.391875 -5.475 8.78375 -6.75 9.1875 C-9.93858794 10.35460137 -10.88877424 10.85843994 -13.0625 13.625 C-15.72370891 16.88712705 -17.94238363 16.54915374 -22 17 C-24.2773501 19.81509993 -24.2773501 19.81509993 -24 23 C-25.093125 22.835 -26.18625 22.67 -27.3125 22.5 C-30.87525873 21.93281816 -30.87525873 21.93281816 -34 22 C-34 22.66 -34 23.32 -34 24 C-35.32 23.34 -36.64 22.68 -38 22 C-36.51113281 21.27296875 -36.51113281 21.27296875 -34.9921875 20.53125 C-16.6849561 11.59154873 -16.6849561 11.59154873 0 0 Z " fill="#C9C4C0" transform="translate(3056,2127)"/>
<path d="M0 0 C-3.0684847 2.97550031 -4.46236331 3.96474513 -8.8125 4.25 C-10.3903125 4.12625 -10.3903125 4.12625 -12 4 C-12.33 4.99 -12.66 5.98 -13 7 C-13.99 7 -14.98 7 -16 7 C-16 6.34 -16 5.68 -16 5 C-16.99 5.33 -17.98 5.66 -19 6 C-20.66666667 5.33333333 -22.33333333 4.66666667 -24 4 C-26.66402839 3.54444124 -29.30828164 3.27373407 -32 3 C-32 2.34 -32 1.68 -32 1 C-28.16678585 0.8305164 -24.33341274 0.6649259 -20.5 0.5 C-18.88351563 0.42845703 -18.88351563 0.42845703 -17.234375 0.35546875 C-11.4831177 0.10998826 -5.75643239 -0.05588769 0 0 Z " fill="#777370" transform="translate(2944,2168)"/>
<path d="M0 0 C1.08203125 1.84375 1.08203125 1.84375 2 4 C0.6875 6.5 0.6875 6.5 -1 9 C-1.69579454 11.19130534 -1.69579454 11.19130534 -2 13 C-4.97 12.505 -4.97 12.505 -8 12 C-8.33 12.66 -8.66 13.32 -9 14 C-10.97485205 15.3703055 -12.97386717 16.70672372 -15 18 C-15 15 -15 15 -13.62304688 13.2824707 C-12.99462891 12.66976318 -12.36621094 12.05705566 -11.71875 11.42578125 C-11.04199219 10.75869141 -10.36523438 10.09160156 -9.66796875 9.40429688 C-8.95253906 8.71400391 -8.23710937 8.02371094 -7.5 7.3125 C-6.42685547 6.2596582 -6.42685547 6.2596582 -5.33203125 5.18554688 C-3.56120423 3.45013639 -1.78376544 1.7220927 0 0 Z " fill="#ECE8E5" transform="translate(3089,2098)"/>
<path d="M0 0 C0.33 0 0.66 0 1 0 C2.62485849 5.95781446 3.31391113 11.73189955 3.6875 17.875 C3.73575928 18.62450928 3.78401855 19.37401855 3.83374023 20.14624023 C4.00889634 23.42014108 4.04635919 25.86092244 3 29 C2.01 29.33 1.02 29.66 0 30 C-0.02709444 27.91673869 -0.04643873 25.83337559 -0.0625 23.75 C-0.07410156 22.58984375 -0.08570312 21.4296875 -0.09765625 20.234375 C-0.01782092 17.59022872 0.21356222 15.50173909 1 13 C0.34 13 -0.32 13 -1 13 C-0.67 8.71 -0.34 4.42 0 0 Z " fill="#F3F3F3" transform="translate(2619,2631)"/>
<path d="M0 0 C3.84279144 0.72853572 7.61008843 1.64244011 11.39453125 2.62890625 C12.59658203 2.94150391 13.79863281 3.25410156 15.03710938 3.57617188 C16.90592773 4.0644043 16.90592773 4.0644043 18.8125 4.5625 C20.71032227 5.0565332 20.71032227 5.0565332 22.64648438 5.56054688 C25.76465121 6.37244692 28.88247417 7.18564274 32 8 C32 8.33 32 8.66 32 9 C24.78528371 9.35482211 18.87581298 8.1591338 12 6 C12.66 6.66 13.32 7.32 14 8 C11.36 8.33 8.72 8.66 6 9 C5.87625 8.38125 5.7525 7.7625 5.625 7.125 C5.12802644 4.80879168 5.12802644 4.80879168 3 3 C2 2 1 1 0 0 Z " fill="#A7A4A1" transform="translate(2816,2151)"/>
<path d="M0 0 C-0.33 1.32 -0.66 2.64 -1 4 C-1.66 4 -2.32 4 -3 4 C-3 4.66 -3 5.32 -3 6 C-6.74140297 7.24713432 -9.11536978 6.58269453 -13 6 C-15.33303944 5.96296763 -17.66715242 5.95239087 -20 6 C-16.7410945 3.82739633 -13.67850305 2.64978913 -10 1.3125 C-8.7625 0.85488281 -7.525 0.39726562 -6.25 -0.07421875 C-3 -1 -3 -1 0 0 Z " fill="#A7A09B" transform="translate(3014,2153)"/>
<path d="M0 0 C7.18216433 2.27435204 14.0758202 5.03584181 21 8 C21 8.66 21 9.32 21 10 C17.37 10 13.74 10 10 10 C10 8.68 10 7.36 10 6 C9.34 6 8.68 6 8 6 C8 5.34 8 4.68 8 4 C7.236875 3.855625 6.47375 3.71125 5.6875 3.5625 C3 3 3 3 0 2 C0 1.34 0 0.68 0 0 Z " fill="#D6D3D1" transform="translate(2747,2125)"/>
<path d="M0 0 C0.33 0 0.66 0 1 0 C1.10477512 5.78591511 0.99250545 11.29309366 0 17 C-2.59642796 16.65380961 -3.71331532 16.33654288 -5.4375 14.3125 C-6.28037694 10.84733923 -4.7537029 8.96780492 -3 6 C-2.01 6 -1.02 6 0 6 C0 4.02 0 2.04 0 0 Z " fill="#EFEBE7" transform="translate(2623,2679)"/>
<path d="M0 0 C4.37934119 0.51958285 8.68803391 1.05675742 13 2 C13 2.66 13 3.32 13 4 C8.63799813 6.44697666 4.97306516 7.50269348 0 8 C1 6 2 4 3 2 C2.01 2 1.02 2 0 2 C0 1.34 0 0.68 0 0 Z " fill="#918F8D" transform="translate(2848,2160)"/>
<path d="M0 0 C0.66 0.33 1.32 0.66 2 1 C-1.91827406 9.42602297 -1.91827406 9.42602297 -6.0625 11.625 C-9 12 -9 12 -13 11 C-8.71 7.37 -4.42 3.74 0 0 Z " fill="#DDDAD7" transform="translate(3071,2115)"/>
<path d="M0 0 C-0.185625 0.5775 -0.37125 1.155 -0.5625 1.75 C-1.04023546 4.20692525 -0.75729364 5.64397534 0 8 C-2.64 7.67 -5.28 7.34 -8 7 C-8.33 5.35 -8.66 3.7 -9 2 C-5.86501708 0.14223235 -3.62528568 -0.20140476 0 0 Z " fill="#918F8E" transform="translate(2992,2160)"/>
<path d="M0 0 C1.65 0.33 3.3 0.66 5 1 C5 1.66 5 2.32 5 3 C5.66 3 6.32 3 7 3 C7.33 4.32 7.66 5.64 8 7 C4.04 6.67 0.08 6.34 -4 6 C-4 5.34 -4 4.68 -4 4 C-2.68 3.67 -1.36 3.34 0 3 C0 2.01 0 1.02 0 0 Z " fill="#EFECE8" transform="translate(2943,1993)"/>
<path d="M0 0 C5.445 1.485 5.445 1.485 11 3 C11 4.32 11 5.64 11 7 C6.545 7.495 6.545 7.495 2 8 C1.34 5.36 0.68 2.72 0 0 Z " fill="#BAB8B6" transform="translate(2795,2144)"/>
<path d="M0 0 C0 0.66 0 1.32 0 2 C-0.66 2.639375 -1.32 3.27875 -2 3.9375 C-4.34807292 5.88012332 -4.34807292 5.88012332 -4 9 C-5.093125 8.835 -6.18625 8.67 -7.3125 8.5 C-10.87525873 7.93281816 -10.87525873 7.93281816 -14 8 C-14 8.66 -14 9.32 -14 10 C-15.32 9.34 -16.64 8.68 -18 8 C-15.3773768 6.66180502 -12.75213401 5.3292849 -10.125 4 C-9.00544922 3.42765625 -9.00544922 3.42765625 -7.86328125 2.84375 C-7.14785156 2.4828125 -6.43242187 2.121875 -5.6953125 1.75 C-5.03547363 1.41484375 -4.37563477 1.0796875 -3.69580078 0.734375 C-2 0 -2 0 0 0 Z " fill="#BBB5B1" transform="translate(3036,2141)"/>
<path d="M0 0 C1.51953125 1.859375 1.51953125 1.859375 3 4 C2.6875 6.25 2.6875 6.25 2 8 C1.34 8 0.68 8 0 8 C-0.66 13.94 -1.32 19.88 -2 26 C-2.33 26 -2.66 26 -3 26 C-3.30659554 16.84755529 -3.49409003 8.65203245 0 0 Z " fill="#B0865D" transform="translate(1348,1894)"/>
<path d="M0 0 C5.28 0.66 10.56 1.32 16 2 C16 2.99 16 3.98 16 5 C8.35294118 4.10784314 8.35294118 4.10784314 5.75 3.3125 C3.31918318 2.87842557 2.05921793 3.74976054 0 5 C-0.33 4.34 -0.66 3.68 -1 3 C-0.67 2.01 -0.34 1.02 0 0 Z " fill="#888482" transform="translate(2864,2163)"/>
<path d="M0 0 C0.33 0 0.66 0 1 0 C1.10824843 1.6026782 1.18570645 3.20745748 1.25 4.8125 C1.29640625 5.70582031 1.3428125 6.59914063 1.390625 7.51953125 C1 10 1 10 -0.828125 11.88671875 C-1.54484375 12.25410156 -2.2615625 12.62148437 -3 13 C-3.99 12.67 -4.98 12.34 -6 12 C-4.02 8.04 -2.04 4.08 0 0 Z " fill="#F2EEEA" transform="translate(3133,2743)"/>
<path d="M0 0 C2.08304538 -0.05418326 4.16649768 -0.09287551 6.25 -0.125 C7.99023438 -0.15980469 7.99023438 -0.15980469 9.765625 -0.1953125 C12.82786046 -0.0103949 14.44202751 0.39176977 17 2 C16.67 2.99 16.34 3.98 16 5 C15.01 5 14.02 5 13 5 C13 4.34 13 3.68 13 3 C12.01 3.33 11.02 3.66 10 4 C7.51953125 3.44140625 7.51953125 3.44140625 4.8125 2.5625 C3.91144531 2.27503906 3.01039063 1.98757812 2.08203125 1.69140625 C1.39496094 1.46324219 0.70789062 1.23507813 0 1 C0 0.67 0 0.34 0 0 Z " fill="#6E6E70" transform="translate(2915,2170)"/>
<path d="M0 0 C4.51013391 0.53060399 7.38378219 2.30886117 11 5 C11 5.33 11 5.66 11 6 C8.03 6 5.06 6 2 6 C0 2 0 2 0 0 Z " fill="#F1EEEB" transform="translate(1401,2137)"/>
<path d="M0 0 C0.33 0 0.66 0 1 0 C2.5056904 5.80766296 3.21824777 10.9981863 3 17 C2.34 16.67 1.68 16.34 1 16 C1 15.01 1 14.02 1 13 C0.34 13 -0.32 13 -1 13 C-0.67 8.71 -0.34 4.42 0 0 Z " fill="#EDE8E3" transform="translate(2619,2631)"/>
<path d="M0 0 C1.22589844 0.01353516 1.22589844 0.01353516 2.4765625 0.02734375 C3.41628906 0.04474609 3.41628906 0.04474609 4.375 0.0625 C5.035 2.0425 5.695 4.0225 6.375 6.0625 C4.76902675 5.61053755 3.16527492 5.15067673 1.5625 4.6875 C0.66917969 4.43226562 -0.22414063 4.17703125 -1.14453125 3.9140625 C-3.625 3.0625 -3.625 3.0625 -6.625 1.0625 C-4.21954362 -0.14022819 -2.67503047 -0.03821472 0 0 Z " fill="#F1EBE8" transform="translate(2722.625,1936.9375)"/>
<path d="M0 0 C0.99 0.33 1.98 0.66 3 1 C1.50163895 4.11198065 -0.19933758 7.0534615 -2 10 C-3.32 9.67 -4.64 9.34 -6 9 C-4.47291037 5.56404834 -2.40072955 2.88087546 0 0 Z " fill="#A57347" transform="translate(1417,1770)"/>
<path d="M0 0 C2.91819239 0.61846464 5.83441022 1.24448135 8.75 1.875 C9.575 2.04902344 10.4 2.22304687 11.25 2.40234375 C12.04921875 2.57636719 12.8484375 2.75039062 13.671875 2.9296875 C14.4050293 3.08679199 15.13818359 3.24389648 15.89355469 3.40576172 C18.10428356 4.02941889 19.98236484 4.91143399 22 6 C13.99819339 6.54249536 7.53404602 4.60838688 0 2 C0 1.34 0 0.68 0 0 Z " fill="#A29B95" transform="translate(2826,2154)"/>
<path d="M0 0 C0.66 0.33 1.32 0.66 2 1 C0.625 3.5 0.625 3.5 -1 6 C-1.66 6 -2.32 6 -3 6 C-3 6.66 -3 7.32 -3 8 C-4.98 8.33 -6.96 8.66 -9 9 C-7.48328036 4.44984107 -3.83108947 2.49942736 0 0 Z " fill="#D2CECB" transform="translate(3056,2127)"/>
<path d="M0 0 C2.31005869 2.31005869 2.72174103 3.83083657 3.625 6.9375 C3.88539063 7.81277344 4.14578125 8.68804688 4.4140625 9.58984375 C5 12 5 12 5 15 C4.34 15 3.68 15 3 15 C3 13.68 3 12.36 3 11 C2.01 11.33 1.02 11.66 0 12 C-0.19477739 10.37585622 -0.38059458 8.75063577 -0.5625 7.125 C-0.66691406 6.22007813 -0.77132812 5.31515625 -0.87890625 4.3828125 C-1 2 -1 2 0 0 Z " fill="#AA7B52" transform="translate(3067,1325)"/>
<path d="M0 0 C1.98983228 3.97966457 2.22400716 4.67675132 1.625 8.75 C1.51414062 9.54921875 1.40328125 10.3484375 1.2890625 11.171875 C1.19367187 11.77515625 1.09828125 12.3784375 1 13 C0.34 13 -0.32 13 -1 13 C-1 14.32 -1 15.64 -1 17 C-1.66 17 -2.32 17 -3 17 C-2.01 11.39 -1.02 5.78 0 0 Z " fill="#AB7B54" transform="translate(3132,2700)"/>
<path d="M0 0 C-0.66 1.32 -1.32 2.64 -2 4 C-3.32 4 -4.64 4 -6 4 C-6.33 4.66 -6.66 5.32 -7 6 C-7.99 5.01 -8.98 4.02 -10 3 C-4.37755102 -1.45918367 -4.37755102 -1.45918367 0 0 Z " fill="#A67549" transform="translate(2494,2553)"/>
<path d="M0 0 C0.33 0.99 0.66 1.98 1 3 C1.66 3.33 2.32 3.66 3 4 C-1.75 8.875 -1.75 8.875 -4 10 C-4 9.34 -4 8.68 -4 8 C-4.66 7.67 -5.32 7.34 -6 7 C-4.02 4.69 -2.04 2.38 0 0 Z " fill="#EFEBE6" transform="translate(3096,2090)"/>
<path d="M0 0 C1.32 0 2.64 0 4 0 C4 0.66 4 1.32 4 2 C5.65 2 7.3 2 9 2 C8.67 2.66 8.34 3.32 8 4 C6.68 4 5.36 4 4 4 C4 4.66 4 5.32 4 6 C2.35 5.67 0.7 5.34 -1 5 C-0.67 3.35 -0.34 1.7 0 0 Z " fill="#A3734A" transform="translate(2812,2145)"/>
<path d="M0 0 C3.5625 0.25 3.5625 0.25 7 1 C7.33 1.66 7.66 2.32 8 3 C3.25 6 3.25 6 1 6 C1 5.34 1 4.68 1 4 C0.01 3.34 -0.98 2.68 -2 2 C-1.34 1.34 -0.68 0.68 0 0 Z " fill="#F1EEEB" transform="translate(2595,1001)"/>
<path d="M0 0 C2.18975773 3.28463659 2.99806563 6.20696275 4 10 C3.01 10.66 2.02 11.32 1 12 C-1.22923777 7.67265609 -0.92470553 4.71599818 0 0 Z " fill="#F0ECE9" transform="translate(3131,1832)"/>
<path d="M0 0 C2.16874252 0.50603992 3.99967627 0.99983813 6 2 C5.67 3.65 5.34 5.3 5 7 C1.535 5.02 1.535 5.02 -2 3 C-1.34 2.01 -0.68 1.02 0 0 Z " fill="#F0EDEA" transform="translate(2329,1745)"/>
<path d="M0 0 C0.33 0.66 0.66 1.32 1 2 C1.66 2 2.32 2 3 2 C3 4 3 4 1.5 5.625 C1.005 6.07875 0.51 6.5325 0 7 C0.66 7 1.32 7 2 7 C2 7.66 2 8.32 2 9 C1.01 8.67 0.02 8.34 -1 8 C-2.6875 4.4375 -2.6875 4.4375 -4 1 C-2.68 0.67 -1.36 0.34 0 0 Z " fill="#F1EEEC" transform="translate(3035,1240)"/>
<path d="M0 0 C0.66 1.32 1.32 2.64 2 4 C0.29374499 6.78388975 -0.47626739 7.85384206 -3.6875 8.75 C-4.450625 8.8325 -5.21375 8.915 -6 9 C-4.16172132 5.84866512 -2.24027294 2.88035092 0 0 Z " fill="#EEE7E1" transform="translate(1169,1458)"/>
<path d="M0 0 C0.66 0 1.32 0 2 0 C2.76173392 4.3164922 3.16063604 7.74433453 2 12 C1.67 10.68 1.34 9.36 1 8 C0.34 8 -0.32 8 -1 8 C-0.67 5.36 -0.34 2.72 0 0 Z " fill="#F0ECE9" transform="translate(2522,1104)"/>
<path d="M0 0 C3.78611227 0.54087318 5.55400767 2.11722332 8 5 C8 5.66 8 6.32 8 7 C2.25 5.25 2.25 5.25 0 3 C0 2.01 0 1.02 0 0 Z M4 0 C6 1 6 1 6 1 Z " fill="#EFEBE7" transform="translate(1728,1378)"/>
<path d="M0 0 C2.88437779 1.29299694 4.87219421 2.65941363 7 5 C6.01 6.485 6.01 6.485 5 8 C4.34 8 3.68 8 3 8 C0 2.25 0 2.25 0 0 Z " fill="#A57347" transform="translate(3120,2604)"/>
<path d="M0 0 C2.475 0.99 2.475 0.99 5 2 C5 4.64 5 7.28 5 10 C2.35534962 6.8745041 1.15585285 3.91211733 0 0 Z " fill="#A57447" transform="translate(3113,1791)"/>
<path d="M0 0 C1.60597325 0.45196245 3.20972508 0.91182327 4.8125 1.375 C6.15248047 1.75785156 6.15248047 1.75785156 7.51953125 2.1484375 C10 3 10 3 13 5 C11.02 5.33 9.04 5.66 7 6 C6.67 5.01 6.34 4.02 6 3 C4.68 3.33 3.36 3.66 2 4 C1.34 2.68 0.68 1.36 0 0 Z " fill="#F0EDEA" transform="translate(1737,1479)"/>
<path d="M0 0 C0.99 0.33 1.98 0.66 3 1 C2.67 1.61875 2.34 2.2375 2 2.875 C0.85806765 4.91018344 0.85806765 4.91018344 1 7 C-0.65 7.33 -2.3 7.66 -4 8 C-2.25 2.25 -2.25 2.25 0 0 Z " fill="#EFECE9" transform="translate(1318,1895)"/>
<path d="M0 0 C0.99 0.33 1.98 0.66 3 1 C3 1.66 3 2.32 3 3 C4.32 3 5.64 3 7 3 C7 3.66 7 4.32 7 5 C5.375 5.75 5.375 5.75 3 6 C-0.25 4.0625 -0.25 4.0625 -3 2 C-2.01 1.34 -1.02 0.68 0 0 Z " fill="#A77649" transform="translate(2004,1601)"/>
<path d="M0 0 C0.66 0.66 1.32 1.32 2 2 C0.68 4.64 -0.64 7.28 -2 10 C-2.33 9.34 -2.66 8.68 -3 8 C-3.66 8 -4.32 8 -5 8 C-4.67 7.01 -4.34 6.02 -4 5 C-3.34 4.67 -2.68 4.34 -2 4 C-2.33 3.34 -2.66 2.68 -3 2 C-2.01 1.34 -1.02 0.68 0 0 Z " fill="#EFEAE5" transform="translate(3120,2736)"/>
<path d="M0 0 C2 2 2 2 2 5 C-0.97 4.67 -3.94 4.34 -7 4 C-5.1875 2.4375 -5.1875 2.4375 -3 1 C-2.01 1.33 -1.02 1.66 0 2 C0 1.34 0 0.68 0 0 Z " fill="#A6774B" transform="translate(1737,2204)"/>
<path d="M0 0 C2.97 0.33 5.94 0.66 9 1 C9 2.98 9 4.96 9 7 C7.4972763 6.02501855 5.99788037 5.04490611 4.5 4.0625 C3.6646875 3.51722656 2.829375 2.97195313 1.96875 2.41015625 C1.3190625 1.94480469 0.669375 1.47945312 0 1 C0 0.67 0 0.34 0 0 Z " fill="#A8784D" transform="translate(1448,2008)"/>
<path d="M0 0 C2.97 0.99 5.94 1.98 9 3 C8.01 4.485 8.01 4.485 7 6 C3.75728494 5.4409112 2.06942576 4.5867822 0 2 C0 1.34 0 0.68 0 0 Z " fill="#A8774B" transform="translate(2710,1936)"/>
<path d="M0 0 C0.33 0.99 0.66 1.98 1 3 C-1.31 4.98 -3.62 6.96 -6 9 C-6 7.68 -6 6.36 -6 5 C-5.34 5 -4.68 5 -4 5 C-3.67 4.01 -3.34 3.02 -3 2 C-2.01 1.34 -1.02 0.68 0 0 Z " fill="#F2EDEA" transform="translate(2568,1025)"/>
<path d="M0 0 C3.83206182 0.41427695 6.08025204 1.51280729 9 4 C2.47692308 4.36923077 2.47692308 4.36923077 0.0625 2.5 C-0.4634375 1.7575 -0.4634375 1.7575 -1 1 C-0.67 0.67 -0.34 0.34 0 0 Z " fill="#A77347" transform="translate(2799,1018)"/>
<path d="M0 0 C0.66 0 1.32 0 2 0 C2 3.96 2 7.92 2 12 C-0.61020066 9.38979934 -0.63751674 7.62483262 -1 4 C-0.5625 1.625 -0.5625 1.625 0 0 Z " fill="#EEE8E5" transform="translate(3131,2643)"/>
<path d="M0 0 C2.40229368 3.60344053 2.12867605 4.92769956 1.625 9.125 C1.41875 10.07375 1.2125 11.0225 1 12 C0.01 12.495 0.01 12.495 -1 13 C-1.02708567 11.39592672 -1.04643483 9.7917215 -1.0625 8.1875 C-1.07410156 7.29417969 -1.08570312 6.40085937 -1.09765625 5.48046875 C-1 3 -1 3 0 0 Z " fill="#A97B51" transform="translate(2939,2634)"/>
<path d="M0 0 C1.6875 2.3125 1.6875 2.3125 3 5 C2.67 5.99 2.34 6.98 2 8 C-0.31 6.02 -2.62 4.04 -5 2 C-2 0 -2 0 0 0 Z " fill="#A77549" transform="translate(1836,2052)"/>
<path d="M0 0 C2.64 0 5.28 0 8 0 C7.67 1.32 7.34 2.64 7 4 C7.99 4.33 8.98 4.66 10 5 C9.01 5.495 9.01 5.495 8 6 C6.0546875 5.0390625 6.0546875 5.0390625 3.875 3.625 C3.15054688 3.16351562 2.42609375 2.70203125 1.6796875 2.2265625 C1.12539062 1.82179688 0.57109375 1.41703125 0 1 C0 0.67 0 0.34 0 0 Z " fill="#A8794E" transform="translate(2613,2051)"/>
<path d="M0 0 C2.96528179 -0.0562279 5.68850026 0.04316196 8.625 0.3125 C9.42679688 0.37373047 10.22859375 0.43496094 11.0546875 0.49804688 C13.03758124 0.65148508 15.01898519 0.82395693 17 1 C17 1.33 17 1.66 17 2 C7.595 2.495 7.595 2.495 -2 3 C-1.34 2.01 -0.68 1.02 0 0 Z " fill="#ECE6E0" transform="translate(1435,1757)"/>
<path d="M0 0 C0.33 0.99 0.66 1.98 1 3 C1.66 3 2.32 3 3 3 C3 3.66 3 4.32 3 5 C2.34 5 1.68 5 1 5 C1 6.32 1 7.64 1 9 C0.34 9 -0.32 9 -1 9 C-1.33 6.36 -1.66 3.72 -2 1 C-1.34 0.67 -0.68 0.34 0 0 Z " fill="#F0EDE9" transform="translate(3164,1685)"/>
<path d="M0 0 C0.99 0 1.98 0 3 0 C3 0.99 3 1.98 3 3 C3.66 3.66 4.32 4.32 5 5 C4.01 5.33 3.02 5.66 2 6 C-0.6875 4.5625 -0.6875 4.5625 -3 3 C-2.01 2.67 -1.02 2.34 0 2 C0 1.34 0 0.68 0 0 Z " fill="#F0EBE7" transform="translate(1813,1421)"/>
<path d="M0 0 C1.61949011 2.57213134 2.04408751 3.67669159 1.625 6.75 C1.41875 7.4925 1.2125 8.235 1 9 C0.01 8.34 -0.98 7.68 -2 7 C-1.125 2.25 -1.125 2.25 0 0 Z " fill="#EDE9E4" transform="translate(2939,2712)"/>
<path d="M0 0 C0.66 0.33 1.32 0.66 2 1 C-2.26311718 5.12989477 -5.28758534 5.61271765 -11 6 C-7.57874946 3.12614955 -4.16111563 1.54115394 0 0 Z " fill="#A77850" transform="translate(2746,2552)"/>
<path d="M0 0 C0 0.99 0 1.98 0 3 C-0.78375 3.268125 -1.5675 3.53625 -2.375 3.8125 C-5.28114923 4.84814432 -5.28114923 4.84814432 -7 8 C-7.66 7.67 -8.32 7.34 -9 7 C-4.56923077 1.21538462 -4.56923077 1.21538462 -1.6875 0.125 C-0.8521875 0.063125 -0.8521875 0.063125 0 0 Z " fill="#F1EDE8" transform="translate(1423,1703)"/>
<path d="M0 0 C3.24271506 0.5590888 4.93057424 1.4132178 7 4 C7 4.66 7 5.32 7 6 C7.66 6.33 8.32 6.66 9 7 C8.34 7.66 7.68 8.32 7 9 C5.83037314 7.69013727 4.66437056 6.3770374 3.5 5.0625 C2.8503125 4.33160156 2.200625 3.60070313 1.53125 2.84765625 C0 1 0 1 0 0 Z " fill="#A6754A" transform="translate(3035,1680)"/>
<path d="M0 0 C0.33 1.98 0.66 3.96 1 6 C-1.31 5.34 -3.62 4.68 -6 4 C-6 3.34 -6 2.68 -6 2 C-1.125 0 -1.125 0 0 0 Z " fill="#A7754A" transform="translate(1819,1505)"/>
<path d="M0 0 C0.99 0.33 1.98 0.66 3 1 C2.34 3.97 1.68 6.94 1 10 C0.67 10 0.34 10 0 10 C-1.125 2.25 -1.125 2.25 0 0 Z " fill="#F0EDE9" transform="translate(3076,1348)"/>
<path d="M0 0 C1.32 0 2.64 0 4 0 C4.33 2.97 4.66 5.94 5 9 C2.67527795 6.14693203 1.2491742 3.45925163 0 0 Z " fill="#A77448" transform="translate(2562,1327)"/>
<path d="M0 0 C6.93 0.495 6.93 0.495 14 1 C14 1.33 14 1.66 14 2 C8.06 2.495 8.06 2.495 2 3 C1.34 2.01 0.68 1.02 0 0 Z " fill="#B0845E" transform="translate(2696,988)"/>
<path d="M0 0 C0.99 0.33 1.98 0.66 3 1 C2.67 2.32 2.34 3.64 2 5 C-0.31 4.34 -2.62 3.68 -5 3 C-2 1 -2 1 0 0 Z " fill="#F0EDEC" transform="translate(3013,2778)"/>
<path d="M0 0 C2 3 2 3 3 6 C1.02 6.99 -0.96 7.98 -3 9 C-2.01 6.03 -1.02 3.06 0 0 Z " fill="#EEEAE7" transform="translate(2963,2609)"/>
<path d="M0 0 C1.7074998 1.28062485 3.37373596 2.61767557 5 4 C5 4.66 5 5.32 5 6 C4.01 6.33 3.02 6.66 2 7 C1.34 6.67 0.68 6.34 0 6 C0 4.02 0 2.04 0 0 Z " fill="#F2EEEA" transform="translate(2849,2584)"/>
<path d="M0 0 C0.99 0.33 1.98 0.66 3 1 C3 2.65 3 4.3 3 6 C0.36 5.67 -2.28 5.34 -5 5 C-4.360625 4.731875 -3.72125 4.46375 -3.0625 4.1875 C-0.66868314 3.11332248 -0.66868314 3.11332248 0 0 Z " fill="#A77548" transform="translate(1569,2209)"/>
<path d="M0 0 C2.86724686 0.57344937 3.8614515 0.8614515 6 3 C3.69 3.66 1.38 4.32 -1 5 C-1 2 -1 2 0 0 Z " fill="#99795D" transform="translate(2972,2161)"/>
<path d="M0 0 C1.98 1.65 3.96 3.3 6 5 C2.71023192 6.09658936 1.28696233 5.79953138 -2 5 C-1.34 3.35 -0.68 1.7 0 0 Z " fill="#A9794E" transform="translate(1733,2041)"/>
<path d="M0 0 C3.36720387 1.39332574 4.9859524 2.9789286 7 6 C6.67 6.66 6.34 7.32 6 8 C1.3125 4.38671875 1.3125 4.38671875 0 3 C0 2.01 0 1.02 0 0 Z " fill="#A87445" transform="translate(1650,2024)"/>
<path d="M0 0 C2.375 0.3125 2.375 0.3125 5 1 C5.66 1.99 6.32 2.98 7 4 C6.01 4.66 5.02 5.32 4 6 C2.62437146 4.71034824 1.29233607 3.37310707 0 2 C0 1.34 0 0.68 0 0 Z " fill="#F0EDE9" transform="translate(1753,1985)"/>
<path d="M0 0 C0.66 0 1.32 0 2 0 C2 0.66 2 1.32 2 2 C3.98 2 5.96 2 8 2 C8 2.99 8 3.98 8 5 C4.7 4.01 1.4 3.02 -2 2 C-1.34 1.34 -0.68 0.68 0 0 Z " fill="#EBE2DC" transform="translate(2746,1947)"/>
<path d="M0 0 C2.31 1.98 4.62 3.96 7 6 C6.34 6.66 5.68 7.32 5 8 C2.5 6.8125 2.5 6.8125 0 5 C-0.3125 2.3125 -0.3125 2.3125 0 0 Z " fill="#A8794F" transform="translate(1673,1800)"/>
<path d="M0 0 C1.64826111 2.96687001 2.44271087 5.65626525 3 9 C2.01 9 1.02 9 0 9 C-1.25664978 6.09399739 -2 4.20395416 -2 1 C-1.34 0.67 -0.68 0.34 0 0 Z " fill="#F0EEEB" transform="translate(1588,1713)"/>
<path d="M0 0 C0.66 0.33 1.32 0.66 2 1 C2.625 4.0625 2.625 4.0625 3 7 C-0.465 5.02 -0.465 5.02 -4 3 C-2.68 2.01 -1.36 1.02 0 0 Z " fill="#F2EEEB" transform="translate(2045,1561)"/>
<path d="M0 0 C3.63 1.32 7.26 2.64 11 4 C6.99998285 5.00000429 4.94476647 4.80688405 1 4 C0.67 2.68 0.34 1.36 0 0 Z " fill="#A8764A" transform="translate(1607,1328)"/>
<path d="M0 0 C0.66 0.99 1.32 1.98 2 3 C1.67 3.66 1.34 4.32 1 5 C-1.4375 5.75 -1.4375 5.75 -4 6 C-4.66 5.34 -5.32 4.68 -6 4 C-4.02 2.68 -2.04 1.36 0 0 Z " fill="#A87449" transform="translate(2592,1009)"/>
<path d="M0 0 C1.98 0.99 3.96 1.98 6 3 C5.01 4.485 5.01 4.485 4 6 C3.01 6 2.02 6 1 6 C0.67 4.02 0.34 2.04 0 0 Z " fill="#F3EEEA" transform="translate(2475,2785)"/>
<path d="M0 0 C2.97 0.33 5.94 0.66 9 1 C5.5647952 3.29013653 4.014669 3.17842973 0 3 C0 2.01 0 1.02 0 0 Z " fill="#A77347" transform="translate(2550,2547)"/>
<path d="M0 0 C2.0625 0.4375 2.0625 0.4375 4 1 C4 1.66 4 2.32 4 3 C3.34 3 2.68 3 2 3 C2 3.66 2 4.32 2 5 C1.01 5.33 0.02 5.66 -1 6 C-1.042721 4.33388095 -1.04063832 2.66617115 -1 1 C-0.67 0.67 -0.34 0.34 0 0 Z " fill="#A6A6A7" transform="translate(3009,2154)"/>
<path d="M0 0 C2.3431213 0.25561323 4.67843403 0.59270772 7 1 C7.33 1.66 7.66 2.32 8 3 C7.34 3 6.68 3 6 3 C5.67 3.66 5.34 4.32 5 5 C3.35 3.35 1.7 1.7 0 0 Z " fill="#A67546" transform="translate(1782,2129)"/>
<path d="M0 0 C2.88575819 0.39803561 3.82189513 0.79009069 5.75 3.0625 C6.1625 3.701875 6.575 4.34125 7 5 C5.68 5 4.36 5 3 5 C3 4.34 3 3.68 3 3 C2.01 2.67 1.02 2.34 0 2 C0 1.34 0 0.68 0 0 Z " fill="#EFEAE5" transform="translate(1688,1925)"/>
<path d="M0 0 C0.99 0.33 1.98 0.66 3 1 C2.00102287 3.99693138 1.34869747 5.02709413 -1 7 C-1.66 7 -2.32 7 -3 7 C-1.125 1.125 -1.125 1.125 0 0 Z " fill="#EDE7E3" transform="translate(1393,1752)"/>
<path d="M0 0 C1.65 0.99 3.3 1.98 5 3 C3.02 3.99 3.02 3.99 1 5 C1 5.66 1 6.32 1 7 C0.34 7 -0.32 7 -1 7 C-0.67 4.69 -0.34 2.38 0 0 Z " fill="#F1EEEA" transform="translate(2122,1680)"/>
<path d="M0 0 C0.66 0 1.32 0 2 0 C2.66 2.64 3.32 5.28 4 8 C1 7 1 7 -0.25 5.125 C-1 3 -1 3 0 0 Z " fill="#A67548" transform="translate(3146,1636)"/>
<path d="M0 0 C0.75 1.75 0.75 1.75 1 4 C-0.8125 6.25 -0.8125 6.25 -3 8 C-3.66 8 -4.32 8 -5 8 C-3.62845496 5.04590299 -2.01136276 2.55991624 0 0 Z " fill="#A7774C" transform="translate(2963,2581)"/>
<path d="M0 0 C0 3.17370278 -0.30933342 4.3794668 -2 7 C-4.125 8.25 -4.125 8.25 -6 9 C-2.25 2.25 -2.25 2.25 0 0 Z " fill="#A7784D" transform="translate(2708,2580)"/>
<path d="M0 0 C-0.33 0.66 -0.66 1.32 -1 2 C-3.64 2 -6.28 2 -9 2 C-8 0 -8 0 -6.1875 -0.6875 C-3.81180233 -1.02688538 -2.26664171 -0.72856341 0 0 Z " fill="#A77447" transform="translate(2513,2548)"/>
<path d="M0 0 C-0.33 0.99 -0.66 1.98 -1 3 C-1.99 3 -2.98 3 -4 3 C-4 2.34 -4 1.68 -4 1 C-4.99 1.33 -5.98 1.66 -7 2 C-7.99 1.34 -8.98 0.68 -10 0 C-3.375 -1.125 -3.375 -1.125 0 0 Z " fill="#696A68" transform="translate(2932,2172)"/>
<path d="M0 0 C0 0.66 0 1.32 0 2 C-3.3 2 -6.6 2 -10 2 C-6.19832777 -0.53444815 -4.31588991 -1.33941411 0 0 Z " fill="#A19993" transform="translate(3004,2157)"/>
<path d="M0 0 C1.32 0.33 2.64 0.66 4 1 C4.33 2.32 4.66 3.64 5 5 C3.35 5 1.7 5 0 5 C0 3.35 0 1.7 0 0 Z " fill="#F1EEEC" transform="translate(1234,1983)"/>
<path d="M0 0 C0.99 0 1.98 0 3 0 C3.33 0.99 3.66 1.98 4 3 C3.01 3.99 2.02 4.98 1 6 C0.01 4.68 -0.98 3.36 -2 2 C-1.34 1.34 -0.68 0.68 0 0 Z " fill="#A87446" transform="translate(1611,1849)"/>
<path d="M0 0 C0.66 1.32 1.32 2.64 2 4 C1.34 4 0.68 4 0 4 C-0.33 5.32 -0.66 6.64 -1 8 C-1.99 8 -2.98 8 -4 8 C-2.68 5.36 -1.36 2.72 0 0 Z " fill="#EBE3DC" transform="translate(1372,1791)"/>
<path d="M0 0 C0.33 0.66 0.66 1.32 1 2 C3.02463255 2.65213292 3.02463255 2.65213292 5 3 C3.02 3.99 1.04 4.98 -1 6 C-1.66 4.35 -2.32 2.7 -3 1 C-2.01 1.33 -1.02 1.66 0 2 C0 1.34 0 0.68 0 0 Z " fill="#A67648" transform="translate(1419,1699)"/>
<path d="M0 0 C2.4375 0.75 2.4375 0.75 5 2 C5.8125 4.125 5.8125 4.125 6 6 C2.535 4.02 2.535 4.02 -1 2 C-0.67 1.34 -0.34 0.68 0 0 Z " fill="#EFE9E6" transform="translate(2184,1657)"/>
<path d="M0 0 C1.32 0.66 2.64 1.32 4 2 C4 2.99 4 3.98 4 5 C3.01 5 2.02 5 1 5 C0.34 3.68 -0.32 2.36 -1 1 C-0.67 0.67 -0.34 0.34 0 0 Z " fill="#F0ECE7" transform="translate(1178,1554)"/>
<path d="M0 0 C1.65 1.65 3.3 3.3 5 5 C4.67 5.66 4.34 6.32 4 7 C3.01 7 2.02 7 1 7 C0.67 4.69 0.34 2.38 0 0 Z " fill="#F0EBE8" transform="translate(2642,1448)"/>
<path d="M0 0 C0 0.66 0 1.32 0 2 C-3.375 2.625 -3.375 2.625 -7 3 C-7.66 2.34 -8.32 1.68 -9 1 C-5.8035914 -0.06546953 -3.34252724 -0.07427838 0 0 Z " fill="#AA7A4E" transform="translate(1269,1281)"/>
<path d="M0 0 C0.99 1.32 1.98 2.64 3 4 C1.02 4.99 1.02 4.99 -1 6 C-1.625 4.125 -1.625 4.125 -2 2 C-1.34 1.34 -0.68 0.68 0 0 Z " fill="#A9764A" transform="translate(2708,2738)"/>
<path d="M0 0 C1.65 0.99 3.3 1.98 5 3 C4.38125 3.28875 3.7625 3.5775 3.125 3.875 C0.86674235 4.93720042 0.86674235 4.93720042 -1 7 C-0.67 4.69 -0.34 2.38 0 0 Z " fill="#A5754A" transform="translate(1458,2078)"/>
<path d="M0 0 C1.65 1.65 3.3 3.3 5 5 C2.37886292 5 0.49064888 4.68707555 -2 4 C-1.34 2.68 -0.68 1.36 0 0 Z " fill="#A67449" transform="translate(1731,1858)"/>
<path d="M0 0 C0.66 0.66 1.32 1.32 2 2 C0.35 3.65 -1.3 5.3 -3 7 C-3.33 5.68 -3.66 4.36 -4 3 C-2.68 2.01 -1.36 1.02 0 0 Z " fill="#F2ECE7" transform="translate(1413,1772)"/>
<path d="M0 0 C1.32 1.32 2.64 2.64 4 4 C2.35 4.33 0.7 4.66 -1 5 C-1 1 -1 1 0 0 Z " fill="#A7764B" transform="translate(1490,1633)"/>
<path d="M0 0 C1.9375 0.375 1.9375 0.375 4 1 C4.33 1.66 4.66 2.32 5 3 C3.02 3.33 1.04 3.66 -1 4 C-0.67 2.68 -0.34 1.36 0 0 Z " fill="#F0EBE9" transform="translate(2690,1498)"/>
<path d="M0 0 C2.64 0 5.28 0 8 0 C8.33 1.32 8.66 2.64 9 4 C6.03 3.01 3.06 2.02 0 1 C0 0.67 0 0.34 0 0 Z " fill="#F1EAE4" transform="translate(1690,1363)"/>
<path d="M0 0 C0.33 0 0.66 0 1 0 C1 1.98 1 3.96 1 6 C0.34 6 -0.32 6 -1 6 C-1.33 6.99 -1.66 7.98 -2 9 C-3 6 -3 6 -1.5625 2.8125 C-1.046875 1.884375 -0.53125 0.95625 0 0 Z " fill="#EEECE8" transform="translate(2456,2602)"/>
<path d="M0 0 C1.875 0.3125 1.875 0.3125 4 1 C4.66 1.99 5.32 2.98 6 4 C5.34 4 4.68 4 4 4 C3.67 4.66 3.34 5.32 3 6 C0 1.125 0 1.125 0 0 Z " fill="#A67549" transform="translate(1704,2166)"/>
<path d="M0 0 C-3 2 -3 2 -6 2 C-6.33 2.66 -6.66 3.32 -7 4 C-7.33 2.68 -7.66 1.36 -8 0 C-5.13822943 -1.43088528 -3.06624227 -0.59991697 0 0 Z " fill="#CAC6C4" transform="translate(2784,2139)"/>
<path d="M0 0 C0.99 0.66 1.98 1.32 3 2 C2.34 2.66 1.68 3.32 1 4 C1.33 4.66 1.66 5.32 2 6 C1.01 6.33 0.02 6.66 -1 7 C-1.625 4.625 -1.625 4.625 -2 2 C-1.34 1.34 -0.68 0.68 0 0 Z " fill="#E7E6E4" transform="translate(2722,2113)"/>
<path d="M0 0 C1.98 1.65 3.96 3.3 6 5 C5.34 5.66 4.68 6.32 4 7 C2.68 6.34 1.36 5.68 0 5 C0 3.35 0 1.7 0 0 Z " fill="#ECE9E4" transform="translate(1303,2058)"/>
<path d="M0 0 C0.66 0.99 1.32 1.98 2 3 C0.35 4.98 -1.3 6.96 -3 9 C-3.66 8.67 -4.32 8.34 -5 8 C-3.35 5.36 -1.7 2.72 0 0 Z " fill="#EEE5DD" transform="translate(3121,2055)"/>
<path d="M0 0 C1.9375 0.75 1.9375 0.75 4 2 C4.75 4.125 4.75 4.125 5 6 C4.01 6.495 4.01 6.495 3 7 C0 2.25 0 2.25 0 0 Z " fill="#EFEAE6" transform="translate(1840,1989)"/>
<path d="M0 0 C0 0.99 0 1.98 0 3 C-3.51716303 3 -4.37121748 2.17554415 -7 0 C-3.86650268 -1.04449911 -3.01031744 -0.93423645 0 0 Z " fill="#EEEBE8" transform="translate(2418,1795)"/>
<path d="M0 0 C2.9375 0.375 2.9375 0.375 6 1 C6.33 1.66 6.66 2.32 7 3 C6.34 3.66 5.68 4.32 5 5 C3.35 3.35 1.7 1.7 0 0 Z " fill="#A87447" transform="translate(2160,1706)"/>
<path d="M0 0 C2.86724686 0.57344937 3.8614515 0.8614515 6 3 C4.02 3.99 4.02 3.99 2 5 C2 4.34 2 3.68 2 3 C1.34 3 0.68 3 0 3 C0 2.01 0 1.02 0 0 Z " fill="#A57446" transform="translate(2224,1686)"/>
<path d="M0 0 C0 0.66 0 1.32 0 2 C-1.8125 2.6875 -1.8125 2.6875 -4 3 C-5.75 1.5625 -5.75 1.5625 -7 0 C-3.86650268 -1.04449911 -3.01031744 -0.93423645 0 0 Z " fill="#EFE9E6" transform="translate(2105,1602)"/>
<path d="M0 0 C1.32 1.32 2.64 2.64 4 4 C3.01 4.99 2.02 5.98 1 7 C-0.0625 5.1875 -0.0625 5.1875 -1 3 C-0.67 2.01 -0.34 1.02 0 0 Z " fill="#A77549" transform="translate(1173,1551)"/>
<path d="M0 0 C1.98 0 3.96 0 6 0 C6 0.99 6 1.98 6 3 C5.01 3.495 5.01 3.495 4 4 C1.875 3.0625 1.875 3.0625 0 2 C0 1.34 0 0.68 0 0 Z " fill="#F2EEEA" transform="translate(1977,1521)"/>
<path d="M0 0 C0.66 0 1.32 0 2 0 C2 0.66 2 1.32 2 2 C2.99 2.33 3.98 2.66 5 3 C3.02 3.99 3.02 3.99 1 5 C0.01 4.01 -0.98 3.02 -2 2 C-1.34 1.34 -0.68 0.68 0 0 Z " fill="#A6774C" transform="translate(1629,1441)"/>
<path d="M0 0 C3.465 1.485 3.465 1.485 7 3 C3.94736336 3.98120464 2.05263664 3.98120464 -1 3 C-0.67 2.01 -0.34 1.02 0 0 Z " fill="#A67649" transform="translate(1814,1426)"/>
</svg>
